<svg xmlns="http://www.w3.org/2000/svg" version="1.1" xmlns:xlink="http://www.w3.org/1999/xlink" xmlns:svgjs="http://svgjs.com/svgjs" width="1920" height="1080" preserveAspectRatio="none" viewBox="0 0 1920 1080"><g mask="url(&quot;#SvgjsMask1210&quot;)" fill="none"><rect width="1920" height="1080" x="0" y="0" fill="rgba(191, 54, 12, 1)"></rect><path d="M37.11 -59.41L108.13 -18.41L108.13 63.59L37.11 104.59L-33.91 63.59L-33.91 -18.41zM108.13 309.59L179.14 350.59L179.14 432.59L108.13 473.59L37.11 432.59L37.11 350.59zM37.11 432.59L108.13 473.59L108.13 555.59L37.11 596.59L-33.91 555.59L-33.91 473.59zM108.13 801.59L179.14 842.59L179.14 924.59L108.13 965.59L37.11 924.59L37.11 842.59zM37.11 924.59L108.13 965.59L108.13 1047.59L37.11 1088.59L-33.91 1047.59L-33.91 965.59zM108.13 1047.59L179.14 1088.59L179.14 1170.59L108.13 1211.59L37.11 1170.59L37.11 1088.59zM179.14 186.59L250.16 227.59L250.16 309.59L179.14 350.59L108.13 309.59L108.13 227.59zM250.16 309.59L321.17 350.59L321.17 432.59L250.16 473.59L179.14 432.59L179.14 350.59zM179.14 432.59L250.16 473.59L250.16 555.59L179.14 596.59L108.13 555.59L108.13 473.59zM250.16 801.59L321.17 842.59L321.17 924.59L250.16 965.59L179.14 924.59L179.14 842.59zM321.17 -59.41L392.19 -18.41L392.19 63.59L321.17 104.59L250.16 63.59L250.16 -18.41zM392.19 1047.59L463.21 1088.59L463.21 1170.59L392.19 1211.59L321.17 1170.59L321.17 1088.59zM463.21 432.59L534.22 473.59L534.22 555.59L463.21 596.59L392.19 555.59L392.19 473.59zM463.21 924.59L534.22 965.59L534.22 1047.59L463.21 1088.59L392.19 1047.59L392.19 965.59zM605.24 -59.41L676.25 -18.41L676.25 63.59L605.24 104.59L534.22 63.59L534.22 -18.41zM676.25 555.59L747.27 596.59L747.27 678.59L676.25 719.59L605.24 678.59L605.24 596.59zM747.27 -59.41L818.29 -18.41L818.29 63.59L747.27 104.59L676.25 63.59L676.25 -18.41zM747.27 186.59L818.29 227.59L818.29 309.59L747.27 350.59L676.25 309.59L676.25 227.59zM818.29 309.59L889.3 350.59L889.3 432.59L818.29 473.59L747.27 432.59L747.27 350.59zM960.32 63.59L1031.34 104.59L1031.34 186.59L960.32 227.59L889.3 186.59L889.3 104.59zM960.32 309.59L1031.34 350.59L1031.34 432.59L960.32 473.59L889.3 432.59L889.3 350.59zM1031.34 -59.41L1102.35 -18.41L1102.35 63.59L1031.34 104.59L960.32 63.59L960.32 -18.41zM1102.35 63.59L1173.37 104.59L1173.37 186.59L1102.35 227.59L1031.34 186.59L1031.34 104.59zM1102.35 309.59L1173.37 350.59L1173.37 432.59L1102.35 473.59L1031.34 432.59L1031.34 350.59zM1031.34 678.59L1102.35 719.59L1102.35 801.59L1031.34 842.59L960.32 801.59L960.32 719.59zM1386.42 801.59L1457.43 842.59L1457.43 924.59L1386.42 965.59L1315.4 924.59L1315.4 842.59zM1315.4 924.59L1386.42 965.59L1386.42 1047.59L1315.4 1088.59L1244.38 1047.59L1244.38 965.59zM1670.48 63.59L1741.5 104.59L1741.5 186.59L1670.48 227.59L1599.46 186.59L1599.46 104.59zM1670.48 309.59L1741.5 350.59L1741.5 432.59L1670.48 473.59L1599.46 432.59L1599.46 350.59zM1599.46 678.59L1670.48 719.59L1670.48 801.59L1599.46 842.59L1528.45 801.59L1528.45 719.59zM1670.48 801.59L1741.5 842.59L1741.5 924.59L1670.48 965.59L1599.46 924.59L1599.46 842.59zM1812.51 63.59L1883.53 104.59L1883.53 186.59L1812.51 227.59L1741.5 186.59L1741.5 104.59zM1812.51 555.59L1883.53 596.59L1883.53 678.59L1812.51 719.59L1741.5 678.59L1741.5 596.59zM1812.51 1047.59L1883.53 1088.59L1883.53 1170.59L1812.51 1211.59L1741.5 1170.59L1741.5 1088.59zM1954.54 555.59L2025.56 596.59L2025.56 678.59L1954.54 719.59L1883.53 678.59L1883.53 596.59zM1954.54 801.59L2025.56 842.59L2025.56 924.59L1954.54 965.59L1883.53 924.59L1883.53 842.59z" stroke="rgba(245, 81, 30, 1)" stroke-width="2"></path><path d="M28.91 -59.41 a8.2 8.2 0 1 0 16.4 0 a8.2 8.2 0 1 0 -16.4 0zM99.93 -18.41 a8.2 8.2 0 1 0 16.4 0 a8.2 8.2 0 1 0 -16.4 0zM99.93 63.59 a8.2 8.2 0 1 0 16.4 0 a8.2 8.2 0 1 0 -16.4 0zM28.91 104.59 a8.2 8.2 0 1 0 16.4 0 a8.2 8.2 0 1 0 -16.4 0zM-42.11 63.59 a8.2 8.2 0 1 0 16.4 0 a8.2 8.2 0 1 0 -16.4 0zM-42.11 -18.41 a8.2 8.2 0 1 0 16.4 0 a8.2 8.2 0 1 0 -16.4 0zM99.93 309.59 a8.2 8.2 0 1 0 16.4 0 a8.2 8.2 0 1 0 -16.4 0zM170.94 350.59 a8.2 8.2 0 1 0 16.4 0 a8.2 8.2 0 1 0 -16.4 0zM170.94 432.59 a8.2 8.2 0 1 0 16.4 0 a8.2 8.2 0 1 0 -16.4 0zM99.93 473.59 a8.2 8.2 0 1 0 16.4 0 a8.2 8.2 0 1 0 -16.4 0zM28.91 432.59 a8.2 8.2 0 1 0 16.4 0 a8.2 8.2 0 1 0 -16.4 0zM28.91 350.59 a8.2 8.2 0 1 0 16.4 0 a8.2 8.2 0 1 0 -16.4 0zM99.93 555.59 a8.2 8.2 0 1 0 16.4 0 a8.2 8.2 0 1 0 -16.4 0zM28.91 596.59 a8.2 8.2 0 1 0 16.4 0 a8.2 8.2 0 1 0 -16.4 0zM-42.11 555.59 a8.2 8.2 0 1 0 16.4 0 a8.2 8.2 0 1 0 -16.4 0zM-42.11 473.59 a8.2 8.2 0 1 0 16.4 0 a8.2 8.2 0 1 0 -16.4 0zM99.93 801.59 a8.2 8.2 0 1 0 16.4 0 a8.2 8.2 0 1 0 -16.4 0zM170.94 842.59 a8.2 8.2 0 1 0 16.4 0 a8.2 8.2 0 1 0 -16.4 0zM170.94 924.59 a8.2 8.2 0 1 0 16.4 0 a8.2 8.2 0 1 0 -16.4 0zM99.93 965.59 a8.2 8.2 0 1 0 16.4 0 a8.2 8.2 0 1 0 -16.4 0zM28.91 924.59 a8.2 8.2 0 1 0 16.4 0 a8.2 8.2 0 1 0 -16.4 0zM28.91 842.59 a8.2 8.2 0 1 0 16.4 0 a8.2 8.2 0 1 0 -16.4 0zM99.93 1047.59 a8.2 8.2 0 1 0 16.4 0 a8.2 8.2 0 1 0 -16.4 0zM28.91 1088.59 a8.2 8.2 0 1 0 16.4 0 a8.2 8.2 0 1 0 -16.4 0zM-42.11 1047.59 a8.2 8.2 0 1 0 16.4 0 a8.2 8.2 0 1 0 -16.4 0zM-42.11 965.59 a8.2 8.2 0 1 0 16.4 0 a8.2 8.2 0 1 0 -16.4 0zM170.94 1088.59 a8.2 8.2 0 1 0 16.4 0 a8.2 8.2 0 1 0 -16.4 0zM170.94 1170.59 a8.2 8.2 0 1 0 16.4 0 a8.2 8.2 0 1 0 -16.4 0zM99.93 1211.59 a8.2 8.2 0 1 0 16.4 0 a8.2 8.2 0 1 0 -16.4 0zM28.91 1170.59 a8.2 8.2 0 1 0 16.4 0 a8.2 8.2 0 1 0 -16.4 0zM170.94 186.59 a8.2 8.2 0 1 0 16.4 0 a8.2 8.2 0 1 0 -16.4 0zM241.96 227.59 a8.2 8.2 0 1 0 16.4 0 a8.2 8.2 0 1 0 -16.4 0zM241.96 309.59 a8.2 8.2 0 1 0 16.4 0 a8.2 8.2 0 1 0 -16.4 0zM99.93 227.59 a8.2 8.2 0 1 0 16.4 0 a8.2 8.2 0 1 0 -16.4 0zM312.97 350.59 a8.2 8.2 0 1 0 16.4 0 a8.2 8.2 0 1 0 -16.4 0zM312.97 432.59 a8.2 8.2 0 1 0 16.4 0 a8.2 8.2 0 1 0 -16.4 0zM241.96 473.59 a8.2 8.2 0 1 0 16.4 0 a8.2 8.2 0 1 0 -16.4 0zM241.96 555.59 a8.2 8.2 0 1 0 16.4 0 a8.2 8.2 0 1 0 -16.4 0zM170.94 596.59 a8.2 8.2 0 1 0 16.4 0 a8.2 8.2 0 1 0 -16.4 0zM241.96 801.59 a8.2 8.2 0 1 0 16.4 0 a8.2 8.2 0 1 0 -16.4 0zM312.97 842.59 a8.2 8.2 0 1 0 16.4 0 a8.2 8.2 0 1 0 -16.4 0zM312.97 924.59 a8.2 8.2 0 1 0 16.4 0 a8.2 8.2 0 1 0 -16.4 0zM241.96 965.59 a8.2 8.2 0 1 0 16.4 0 a8.2 8.2 0 1 0 -16.4 0zM312.97 -59.41 a8.2 8.2 0 1 0 16.4 0 a8.2 8.2 0 1 0 -16.4 0zM383.99 -18.41 a8.2 8.2 0 1 0 16.4 0 a8.2 8.2 0 1 0 -16.4 0zM383.99 63.59 a8.2 8.2 0 1 0 16.4 0 a8.2 8.2 0 1 0 -16.4 0zM312.97 104.59 a8.2 8.2 0 1 0 16.4 0 a8.2 8.2 0 1 0 -16.4 0zM241.96 63.59 a8.2 8.2 0 1 0 16.4 0 a8.2 8.2 0 1 0 -16.4 0zM241.96 -18.41 a8.2 8.2 0 1 0 16.4 0 a8.2 8.2 0 1 0 -16.4 0zM383.99 1047.59 a8.2 8.2 0 1 0 16.4 0 a8.2 8.2 0 1 0 -16.4 0zM455.01 1088.59 a8.2 8.2 0 1 0 16.4 0 a8.2 8.2 0 1 0 -16.4 0zM455.01 1170.59 a8.2 8.2 0 1 0 16.4 0 a8.2 8.2 0 1 0 -16.4 0zM383.99 1211.59 a8.2 8.2 0 1 0 16.4 0 a8.2 8.2 0 1 0 -16.4 0zM312.97 1170.59 a8.2 8.2 0 1 0 16.4 0 a8.2 8.2 0 1 0 -16.4 0zM312.97 1088.59 a8.2 8.2 0 1 0 16.4 0 a8.2 8.2 0 1 0 -16.4 0zM455.01 432.59 a8.2 8.2 0 1 0 16.4 0 a8.2 8.2 0 1 0 -16.4 0zM526.02 473.59 a8.2 8.2 0 1 0 16.4 0 a8.2 8.2 0 1 0 -16.4 0zM526.02 555.59 a8.2 8.2 0 1 0 16.4 0 a8.2 8.2 0 1 0 -16.4 0zM455.01 596.59 a8.2 8.2 0 1 0 16.4 0 a8.2 8.2 0 1 0 -16.4 0zM383.99 555.59 a8.2 8.2 0 1 0 16.4 0 a8.2 8.2 0 1 0 -16.4 0zM383.99 473.59 a8.2 8.2 0 1 0 16.4 0 a8.2 8.2 0 1 0 -16.4 0zM455.01 924.59 a8.2 8.2 0 1 0 16.4 0 a8.2 8.2 0 1 0 -16.4 0zM526.02 965.59 a8.2 8.2 0 1 0 16.4 0 a8.2 8.2 0 1 0 -16.4 0zM526.02 1047.59 a8.2 8.2 0 1 0 16.4 0 a8.2 8.2 0 1 0 -16.4 0zM383.99 965.59 a8.2 8.2 0 1 0 16.4 0 a8.2 8.2 0 1 0 -16.4 0zM597.04 -59.41 a8.2 8.2 0 1 0 16.4 0 a8.2 8.2 0 1 0 -16.4 0zM668.05 -18.41 a8.2 8.2 0 1 0 16.4 0 a8.2 8.2 0 1 0 -16.4 0zM668.05 63.59 a8.2 8.2 0 1 0 16.4 0 a8.2 8.2 0 1 0 -16.4 0zM597.04 104.59 a8.2 8.2 0 1 0 16.4 0 a8.2 8.2 0 1 0 -16.4 0zM526.02 63.59 a8.2 8.2 0 1 0 16.4 0 a8.2 8.2 0 1 0 -16.4 0zM526.02 -18.41 a8.2 8.2 0 1 0 16.4 0 a8.2 8.2 0 1 0 -16.4 0zM668.05 555.59 a8.2 8.2 0 1 0 16.4 0 a8.2 8.2 0 1 0 -16.4 0zM739.07 596.59 a8.2 8.2 0 1 0 16.4 0 a8.2 8.2 0 1 0 -16.4 0zM739.07 678.59 a8.2 8.2 0 1 0 16.4 0 a8.2 8.2 0 1 0 -16.4 0zM668.05 719.59 a8.2 8.2 0 1 0 16.4 0 a8.2 8.2 0 1 0 -16.4 0zM597.04 678.59 a8.2 8.2 0 1 0 16.4 0 a8.2 8.2 0 1 0 -16.4 0zM597.04 596.59 a8.2 8.2 0 1 0 16.4 0 a8.2 8.2 0 1 0 -16.4 0zM739.07 -59.41 a8.2 8.2 0 1 0 16.4 0 a8.2 8.2 0 1 0 -16.4 0zM810.09 -18.41 a8.2 8.2 0 1 0 16.4 0 a8.2 8.2 0 1 0 -16.4 0zM810.09 63.59 a8.2 8.2 0 1 0 16.4 0 a8.2 8.2 0 1 0 -16.4 0zM739.07 104.59 a8.2 8.2 0 1 0 16.4 0 a8.2 8.2 0 1 0 -16.4 0zM739.07 186.59 a8.2 8.2 0 1 0 16.4 0 a8.2 8.2 0 1 0 -16.4 0zM810.09 227.59 a8.2 8.2 0 1 0 16.4 0 a8.2 8.2 0 1 0 -16.4 0zM810.09 309.59 a8.2 8.2 0 1 0 16.4 0 a8.2 8.2 0 1 0 -16.4 0zM739.07 350.59 a8.2 8.2 0 1 0 16.4 0 a8.2 8.2 0 1 0 -16.4 0zM668.05 309.59 a8.2 8.2 0 1 0 16.4 0 a8.2 8.2 0 1 0 -16.4 0zM668.05 227.59 a8.2 8.2 0 1 0 16.4 0 a8.2 8.2 0 1 0 -16.4 0zM881.1 350.59 a8.2 8.2 0 1 0 16.4 0 a8.2 8.2 0 1 0 -16.4 0zM881.1 432.59 a8.2 8.2 0 1 0 16.4 0 a8.2 8.2 0 1 0 -16.4 0zM810.09 473.59 a8.2 8.2 0 1 0 16.4 0 a8.2 8.2 0 1 0 -16.4 0zM739.07 432.59 a8.2 8.2 0 1 0 16.4 0 a8.2 8.2 0 1 0 -16.4 0zM952.12 63.59 a8.2 8.2 0 1 0 16.4 0 a8.2 8.2 0 1 0 -16.4 0zM1023.14 104.59 a8.2 8.2 0 1 0 16.4 0 a8.2 8.2 0 1 0 -16.4 0zM1023.14 186.59 a8.2 8.2 0 1 0 16.4 0 a8.2 8.2 0 1 0 -16.4 0zM952.12 227.59 a8.2 8.2 0 1 0 16.4 0 a8.2 8.2 0 1 0 -16.4 0zM881.1 186.59 a8.2 8.2 0 1 0 16.4 0 a8.2 8.2 0 1 0 -16.4 0zM881.1 104.59 a8.2 8.2 0 1 0 16.4 0 a8.2 8.2 0 1 0 -16.4 0zM952.12 309.59 a8.2 8.2 0 1 0 16.4 0 a8.2 8.2 0 1 0 -16.4 0zM1023.14 350.59 a8.2 8.2 0 1 0 16.4 0 a8.2 8.2 0 1 0 -16.4 0zM1023.14 432.59 a8.2 8.2 0 1 0 16.4 0 a8.2 8.2 0 1 0 -16.4 0zM952.12 473.59 a8.2 8.2 0 1 0 16.4 0 a8.2 8.2 0 1 0 -16.4 0zM1023.14 -59.41 a8.2 8.2 0 1 0 16.4 0 a8.2 8.2 0 1 0 -16.4 0zM1094.15 -18.41 a8.2 8.2 0 1 0 16.4 0 a8.2 8.2 0 1 0 -16.4 0zM1094.15 63.59 a8.2 8.2 0 1 0 16.4 0 a8.2 8.2 0 1 0 -16.4 0zM952.12 -18.41 a8.2 8.2 0 1 0 16.4 0 a8.2 8.2 0 1 0 -16.4 0zM1165.17 104.59 a8.2 8.2 0 1 0 16.4 0 a8.2 8.2 0 1 0 -16.4 0zM1165.17 186.59 a8.2 8.2 0 1 0 16.4 0 a8.2 8.2 0 1 0 -16.4 0zM1094.15 227.59 a8.2 8.2 0 1 0 16.4 0 a8.2 8.2 0 1 0 -16.4 0zM1094.15 309.59 a8.2 8.2 0 1 0 16.4 0 a8.2 8.2 0 1 0 -16.4 0zM1165.17 350.59 a8.2 8.2 0 1 0 16.4 0 a8.2 8.2 0 1 0 -16.4 0zM1165.17 432.59 a8.2 8.2 0 1 0 16.4 0 a8.2 8.2 0 1 0 -16.4 0zM1094.15 473.59 a8.2 8.2 0 1 0 16.4 0 a8.2 8.2 0 1 0 -16.4 0zM1023.14 678.59 a8.2 8.2 0 1 0 16.4 0 a8.2 8.2 0 1 0 -16.4 0zM1094.15 719.59 a8.2 8.2 0 1 0 16.4 0 a8.2 8.2 0 1 0 -16.4 0zM1094.15 801.59 a8.2 8.2 0 1 0 16.4 0 a8.2 8.2 0 1 0 -16.4 0zM1023.14 842.59 a8.2 8.2 0 1 0 16.4 0 a8.2 8.2 0 1 0 -16.4 0zM952.12 801.59 a8.2 8.2 0 1 0 16.4 0 a8.2 8.2 0 1 0 -16.4 0zM952.12 719.59 a8.2 8.2 0 1 0 16.4 0 a8.2 8.2 0 1 0 -16.4 0zM1378.22 801.59 a8.2 8.2 0 1 0 16.4 0 a8.2 8.2 0 1 0 -16.4 0zM1449.23 842.59 a8.2 8.2 0 1 0 16.4 0 a8.2 8.2 0 1 0 -16.4 0zM1449.23 924.59 a8.2 8.2 0 1 0 16.4 0 a8.2 8.2 0 1 0 -16.4 0zM1378.22 965.59 a8.2 8.2 0 1 0 16.4 0 a8.2 8.2 0 1 0 -16.4 0zM1307.2 924.59 a8.2 8.2 0 1 0 16.4 0 a8.2 8.2 0 1 0 -16.4 0zM1307.2 842.59 a8.2 8.2 0 1 0 16.4 0 a8.2 8.2 0 1 0 -16.4 0zM1378.22 1047.59 a8.2 8.2 0 1 0 16.4 0 a8.2 8.2 0 1 0 -16.4 0zM1307.2 1088.59 a8.2 8.2 0 1 0 16.4 0 a8.2 8.2 0 1 0 -16.4 0zM1236.18 1047.59 a8.2 8.2 0 1 0 16.4 0 a8.2 8.2 0 1 0 -16.4 0zM1236.18 965.59 a8.2 8.2 0 1 0 16.4 0 a8.2 8.2 0 1 0 -16.4 0zM1662.28 63.59 a8.2 8.2 0 1 0 16.4 0 a8.2 8.2 0 1 0 -16.4 0zM1733.3 104.59 a8.2 8.2 0 1 0 16.4 0 a8.2 8.2 0 1 0 -16.4 0zM1733.3 186.59 a8.2 8.2 0 1 0 16.4 0 a8.2 8.2 0 1 0 -16.4 0zM1662.28 227.59 a8.2 8.2 0 1 0 16.4 0 a8.2 8.2 0 1 0 -16.4 0zM1591.26 186.59 a8.2 8.2 0 1 0 16.4 0 a8.2 8.2 0 1 0 -16.4 0zM1591.26 104.59 a8.2 8.2 0 1 0 16.4 0 a8.2 8.2 0 1 0 -16.4 0zM1662.28 309.59 a8.2 8.2 0 1 0 16.4 0 a8.2 8.2 0 1 0 -16.4 0zM1733.3 350.59 a8.2 8.2 0 1 0 16.4 0 a8.2 8.2 0 1 0 -16.4 0zM1733.3 432.59 a8.2 8.2 0 1 0 16.4 0 a8.2 8.2 0 1 0 -16.4 0zM1662.28 473.59 a8.2 8.2 0 1 0 16.4 0 a8.2 8.2 0 1 0 -16.4 0zM1591.26 432.59 a8.2 8.2 0 1 0 16.4 0 a8.2 8.2 0 1 0 -16.4 0zM1591.26 350.59 a8.2 8.2 0 1 0 16.4 0 a8.2 8.2 0 1 0 -16.4 0zM1591.26 678.59 a8.2 8.2 0 1 0 16.4 0 a8.2 8.2 0 1 0 -16.4 0zM1662.28 719.59 a8.2 8.2 0 1 0 16.4 0 a8.2 8.2 0 1 0 -16.4 0zM1662.28 801.59 a8.2 8.2 0 1 0 16.4 0 a8.2 8.2 0 1 0 -16.4 0zM1591.26 842.59 a8.2 8.2 0 1 0 16.4 0 a8.2 8.2 0 1 0 -16.4 0zM1520.25 801.59 a8.2 8.2 0 1 0 16.4 0 a8.2 8.2 0 1 0 -16.4 0zM1520.25 719.59 a8.2 8.2 0 1 0 16.4 0 a8.2 8.2 0 1 0 -16.4 0zM1733.3 842.59 a8.2 8.2 0 1 0 16.4 0 a8.2 8.2 0 1 0 -16.4 0zM1733.3 924.59 a8.2 8.2 0 1 0 16.4 0 a8.2 8.2 0 1 0 -16.4 0zM1662.28 965.59 a8.2 8.2 0 1 0 16.4 0 a8.2 8.2 0 1 0 -16.4 0zM1591.26 924.59 a8.2 8.2 0 1 0 16.4 0 a8.2 8.2 0 1 0 -16.4 0zM1804.31 63.59 a8.2 8.2 0 1 0 16.4 0 a8.2 8.2 0 1 0 -16.4 0zM1875.33 104.59 a8.2 8.2 0 1 0 16.4 0 a8.2 8.2 0 1 0 -16.4 0zM1875.33 186.59 a8.2 8.2 0 1 0 16.4 0 a8.2 8.2 0 1 0 -16.4 0zM1804.31 227.59 a8.2 8.2 0 1 0 16.4 0 a8.2 8.2 0 1 0 -16.4 0zM1804.31 555.59 a8.2 8.2 0 1 0 16.4 0 a8.2 8.2 0 1 0 -16.4 0zM1875.33 596.59 a8.2 8.2 0 1 0 16.4 0 a8.2 8.2 0 1 0 -16.4 0zM1875.33 678.59 a8.2 8.2 0 1 0 16.4 0 a8.2 8.2 0 1 0 -16.4 0zM1804.31 719.59 a8.2 8.2 0 1 0 16.4 0 a8.2 8.2 0 1 0 -16.4 0zM1733.3 678.59 a8.2 8.2 0 1 0 16.4 0 a8.2 8.2 0 1 0 -16.4 0zM1733.3 596.59 a8.2 8.2 0 1 0 16.4 0 a8.2 8.2 0 1 0 -16.4 0zM1804.31 1047.59 a8.2 8.2 0 1 0 16.4 0 a8.2 8.2 0 1 0 -16.4 0zM1875.33 1088.59 a8.2 8.2 0 1 0 16.4 0 a8.2 8.2 0 1 0 -16.4 0zM1875.33 1170.59 a8.2 8.2 0 1 0 16.4 0 a8.2 8.2 0 1 0 -16.4 0zM1804.31 1211.59 a8.2 8.2 0 1 0 16.4 0 a8.2 8.2 0 1 0 -16.4 0zM1733.3 1170.59 a8.2 8.2 0 1 0 16.4 0 a8.2 8.2 0 1 0 -16.4 0zM1733.3 1088.59 a8.2 8.2 0 1 0 16.4 0 a8.2 8.2 0 1 0 -16.4 0zM1946.34 555.59 a8.2 8.2 0 1 0 16.4 0 a8.2 8.2 0 1 0 -16.4 0zM2017.36 596.59 a8.2 8.2 0 1 0 16.4 0 a8.2 8.2 0 1 0 -16.4 0zM2017.36 678.59 a8.2 8.2 0 1 0 16.4 0 a8.2 8.2 0 1 0 -16.4 0zM1946.34 719.59 a8.2 8.2 0 1 0 16.4 0 a8.2 8.2 0 1 0 -16.4 0zM1946.34 801.59 a8.2 8.2 0 1 0 16.4 0 a8.2 8.2 0 1 0 -16.4 0zM2017.36 842.59 a8.2 8.2 0 1 0 16.4 0 a8.2 8.2 0 1 0 -16.4 0zM2017.36 924.59 a8.2 8.2 0 1 0 16.4 0 a8.2 8.2 0 1 0 -16.4 0zM1946.34 965.59 a8.2 8.2 0 1 0 16.4 0 a8.2 8.2 0 1 0 -16.4 0zM1875.33 924.59 a8.2 8.2 0 1 0 16.4 0 a8.2 8.2 0 1 0 -16.4 0zM1875.33 842.59 a8.2 8.2 0 1 0 16.4 0 a8.2 8.2 0 1 0 -16.4 0z" fill="rgba(245, 81, 30, 1)"></path><path d="M73.11 207.47L121.61 235.47L121.61 291.47L73.11 319.47L24.61 291.47L24.61 235.47zM24.61 291.47L73.11 319.47L73.11 375.47L24.61 403.47L-23.89 375.47L-23.89 319.47zM24.61 627.47L73.11 655.47L73.11 711.47L24.61 739.47L-23.89 711.47L-23.89 655.47zM73.11 879.47L121.61 907.47L121.61 963.47L73.11 991.47L24.61 963.47L24.61 907.47zM170.11 207.47L218.61 235.47L218.61 291.47L170.11 319.47L121.61 291.47L121.61 235.47zM121.61 291.47L170.11 319.47L170.11 375.47L121.61 403.47L73.11 375.47L73.11 319.47zM121.61 795.47L170.11 823.47L170.11 879.47L121.61 907.47L73.11 879.47L73.11 823.47zM267.1 375.47L315.6 403.47L315.6 459.47L267.1 487.47L218.61 459.47L218.61 403.47zM218.61 963.47L267.1 991.47L267.1 1047.47L218.61 1075.47L170.11 1047.47L170.11 991.47zM315.6 -44.53L364.1 -16.53L364.1 39.47L315.6 67.47L267.1 39.47L267.1 -16.53zM364.1 39.47L412.6 67.47L412.6 123.47L364.1 151.47L315.6 123.47L315.6 67.47zM364.1 207.47L412.6 235.47L412.6 291.47L364.1 319.47L315.6 291.47L315.6 235.47zM315.6 963.47L364.1 991.47L364.1 1047.47L315.6 1075.47L267.1 1047.47L267.1 991.47zM461.1 207.47L509.6 235.47L509.6 291.47L461.1 319.47L412.6 291.47L412.6 235.47zM461.1 879.47L509.6 907.47L509.6 963.47L461.1 991.47L412.6 963.47L412.6 907.47zM558.1 39.47L606.6 67.47L606.6 123.47L558.1 151.47L509.6 123.47L509.6 67.47zM558.1 543.47L606.6 571.47L606.6 627.47L558.1 655.47L509.6 627.47L509.6 571.47zM655.09 39.47L703.59 67.47L703.59 123.47L655.09 151.47L606.6 123.47L606.6 67.47zM655.09 879.47L703.59 907.47L703.59 963.47L655.09 991.47L606.6 963.47L606.6 907.47zM752.09 375.47L800.59 403.47L800.59 459.47L752.09 487.47L703.59 459.47L703.59 403.47zM703.59 459.47L752.09 487.47L752.09 543.47L703.59 571.47L655.09 543.47L655.09 487.47zM703.59 627.47L752.09 655.47L752.09 711.47L703.59 739.47L655.09 711.47L655.09 655.47zM703.59 795.47L752.09 823.47L752.09 879.47L703.59 907.47L655.09 879.47L655.09 823.47zM800.59 627.47L849.09 655.47L849.09 711.47L800.59 739.47L752.09 711.47L752.09 655.47zM849.09 711.47L897.59 739.47L897.59 795.47L849.09 823.47L800.59 795.47L800.59 739.47zM800.59 795.47L849.09 823.47L849.09 879.47L800.59 907.47L752.09 879.47L752.09 823.47zM849.09 879.47L897.59 907.47L897.59 963.47L849.09 991.47L800.59 963.47L800.59 907.47zM946.09 207.47L994.59 235.47L994.59 291.47L946.09 319.47L897.59 291.47L897.59 235.47zM994.59 123.47L1043.08 151.47L1043.08 207.47L994.59 235.47L946.09 207.47L946.09 151.47zM1091.58 -44.53L1140.08 -16.53L1140.08 39.47L1091.58 67.47L1043.08 39.47L1043.08 -16.53zM1140.08 543.47L1188.58 571.47L1188.58 627.47L1140.08 655.47L1091.58 627.47L1091.58 571.47zM1091.58 627.47L1140.08 655.47L1140.08 711.47L1091.58 739.47L1043.08 711.47L1043.08 655.47zM1091.58 963.47L1140.08 991.47L1140.08 1047.47L1091.58 1075.47L1043.08 1047.47L1043.08 991.47zM1188.58 123.47L1237.08 151.47L1237.08 207.47L1188.58 235.47L1140.08 207.47L1140.08 151.47zM1285.58 -44.53L1334.08 -16.53L1334.08 39.47L1285.58 67.47L1237.08 39.47L1237.08 -16.53zM1285.58 291.47L1334.08 319.47L1334.08 375.47L1285.58 403.47L1237.08 375.47L1237.08 319.47zM1334.08 711.47L1382.58 739.47L1382.58 795.47L1334.08 823.47L1285.58 795.47L1285.58 739.47zM1285.58 795.47L1334.08 823.47L1334.08 879.47L1285.58 907.47L1237.08 879.47L1237.08 823.47zM1334.08 879.47L1382.58 907.47L1382.58 963.47L1334.08 991.47L1285.58 963.47L1285.58 907.47zM1382.58 -44.53L1431.08 -16.53L1431.08 39.47L1382.58 67.47L1334.08 39.47L1334.08 -16.53zM1382.58 123.47L1431.08 151.47L1431.08 207.47L1382.58 235.47L1334.08 207.47L1334.08 151.47zM1431.08 879.47L1479.57 907.47L1479.57 963.47L1431.08 991.47L1382.58 963.47L1382.58 907.47zM1431.08 1047.47L1479.57 1075.47L1479.57 1131.47L1431.08 1159.47L1382.58 1131.47L1382.58 1075.47zM1576.57 123.47L1625.07 151.47L1625.07 207.47L1576.57 235.47L1528.07 207.47L1528.07 151.47zM1576.57 963.47L1625.07 991.47L1625.07 1047.47L1576.57 1075.47L1528.07 1047.47L1528.07 991.47zM1722.07 375.47L1770.57 403.47L1770.57 459.47L1722.07 487.47L1673.57 459.47L1673.57 403.47zM1673.57 963.47L1722.07 991.47L1722.07 1047.47L1673.57 1075.47L1625.07 1047.47L1625.07 991.47zM1722.07 1047.47L1770.57 1075.47L1770.57 1131.47L1722.07 1159.47L1673.57 1131.47L1673.57 1075.47zM1770.57 -44.53L1819.07 -16.53L1819.07 39.47L1770.57 67.47L1722.07 39.47L1722.07 -16.53zM1770.57 123.47L1819.07 151.47L1819.07 207.47L1770.57 235.47L1722.07 207.47L1722.07 151.47zM1819.07 711.47L1867.56 739.47L1867.56 795.47L1819.07 823.47L1770.57 795.47L1770.57 739.47zM1819.07 1047.47L1867.56 1075.47L1867.56 1131.47L1819.07 1159.47L1770.57 1131.47L1770.57 1075.47zM1916.06 39.47L1964.56 67.47L1964.56 123.47L1916.06 151.47L1867.56 123.47L1867.56 67.47zM1916.06 543.47L1964.56 571.47L1964.56 627.47L1916.06 655.47L1867.56 627.47L1867.56 571.47zM1867.56 795.47L1916.06 823.47L1916.06 879.47L1867.56 907.47L1819.07 879.47L1819.07 823.47zM1916.06 879.47L1964.56 907.47L1964.56 963.47L1916.06 991.47L1867.56 963.47L1867.56 907.47zM1867.56 963.47L1916.06 991.47L1916.06 1047.47L1867.56 1075.47L1819.07 1047.47L1819.07 991.47z" stroke="rgba(245, 136, 2, 1)" stroke-width="2"></path></g><defs><mask id="SvgjsMask1210"><rect width="1920" height="1080" fill="#ffffff"></rect></mask></defs></svg>