<svg xmlns="http://www.w3.org/2000/svg" version="1.1" xmlns:xlink="http://www.w3.org/1999/xlink" xmlns:svgjs="http://svgjs.com/svgjs" width="1920" height="1080" preserveAspectRatio="none" viewBox="0 0 1920 1080"><g mask="url(&quot;#SvgjsMask1165&quot;)" fill="none"><rect width="1920" height="1080" x="0" y="0" fill="rgba(245, 81, 30, 1)"></rect><path d="M24.44 -24.65L101.52 19.85L101.52 108.85L24.44 153.35L-52.64 108.85L-52.64 19.85zM178.6 776.35L255.68 820.85L255.68 909.85L178.6 954.35L101.52 909.85L101.52 820.85zM332.75 -24.65L409.83 19.85L409.83 108.85L332.75 153.35L255.68 108.85L255.68 19.85zM563.99 108.85L641.07 153.35L641.07 242.35L563.99 286.85L486.91 242.35L486.91 153.35zM486.91 242.35L563.99 286.85L563.99 375.85L486.91 420.35L409.83 375.85L409.83 286.85zM486.91 1043.35L563.99 1087.85L563.99 1176.85L486.91 1221.35L409.83 1176.85L409.83 1087.85zM718.15 909.85L795.22 954.35L795.22 1043.35L718.15 1087.85L641.07 1043.35L641.07 954.35zM1103.54 -24.65L1180.62 19.85L1180.62 108.85L1103.54 153.35L1026.46 108.85L1026.46 19.85zM1103.54 242.35L1180.62 286.85L1180.62 375.85L1103.54 420.35L1026.46 375.85L1026.46 286.85zM1257.7 -24.65L1334.77 19.85L1334.77 108.85L1257.7 153.35L1180.62 108.85L1180.62 19.85zM1411.85 776.35L1488.93 820.85L1488.93 909.85L1411.85 954.35L1334.77 909.85L1334.77 820.85zM1720.17 242.35L1797.24 286.85L1797.24 375.85L1720.17 420.35L1643.09 375.85L1643.09 286.85zM1874.32 -24.65L1951.4 19.85L1951.4 108.85L1874.32 153.35L1797.24 108.85L1797.24 19.85zM1951.4 375.85L2028.48 420.35L2028.48 509.35L1951.4 553.85L1874.32 509.35L1874.32 420.35z" stroke="rgba(245, 136, 2, 1)" stroke-width="2"></path><path d="M15.54 -24.65 a8.9 8.9 0 1 0 17.8 0 a8.9 8.9 0 1 0 -17.8 0zM92.62 19.85 a8.9 8.9 0 1 0 17.8 0 a8.9 8.9 0 1 0 -17.8 0zM92.62 108.85 a8.9 8.9 0 1 0 17.8 0 a8.9 8.9 0 1 0 -17.8 0zM15.54 153.35 a8.9 8.9 0 1 0 17.8 0 a8.9 8.9 0 1 0 -17.8 0zM-61.54 108.85 a8.9 8.9 0 1 0 17.8 0 a8.9 8.9 0 1 0 -17.8 0zM-61.54 19.85 a8.9 8.9 0 1 0 17.8 0 a8.9 8.9 0 1 0 -17.8 0zM169.7 776.35 a8.9 8.9 0 1 0 17.8 0 a8.9 8.9 0 1 0 -17.8 0zM246.78 820.85 a8.9 8.9 0 1 0 17.8 0 a8.9 8.9 0 1 0 -17.8 0zM246.78 909.85 a8.9 8.9 0 1 0 17.8 0 a8.9 8.9 0 1 0 -17.8 0zM169.7 954.35 a8.9 8.9 0 1 0 17.8 0 a8.9 8.9 0 1 0 -17.8 0zM92.62 909.85 a8.9 8.9 0 1 0 17.8 0 a8.9 8.9 0 1 0 -17.8 0zM92.62 820.85 a8.9 8.9 0 1 0 17.8 0 a8.9 8.9 0 1 0 -17.8 0zM323.85 -24.65 a8.9 8.9 0 1 0 17.8 0 a8.9 8.9 0 1 0 -17.8 0zM400.93 19.85 a8.9 8.9 0 1 0 17.8 0 a8.9 8.9 0 1 0 -17.8 0zM400.93 108.85 a8.9 8.9 0 1 0 17.8 0 a8.9 8.9 0 1 0 -17.8 0zM323.85 153.35 a8.9 8.9 0 1 0 17.8 0 a8.9 8.9 0 1 0 -17.8 0zM246.78 108.85 a8.9 8.9 0 1 0 17.8 0 a8.9 8.9 0 1 0 -17.8 0zM246.78 19.85 a8.9 8.9 0 1 0 17.8 0 a8.9 8.9 0 1 0 -17.8 0zM555.09 108.85 a8.9 8.9 0 1 0 17.8 0 a8.9 8.9 0 1 0 -17.8 0zM632.17 153.35 a8.9 8.9 0 1 0 17.8 0 a8.9 8.9 0 1 0 -17.8 0zM632.17 242.35 a8.9 8.9 0 1 0 17.8 0 a8.9 8.9 0 1 0 -17.8 0zM555.09 286.85 a8.9 8.9 0 1 0 17.8 0 a8.9 8.9 0 1 0 -17.8 0zM478.01 242.35 a8.9 8.9 0 1 0 17.8 0 a8.9 8.9 0 1 0 -17.8 0zM478.01 153.35 a8.9 8.9 0 1 0 17.8 0 a8.9 8.9 0 1 0 -17.8 0zM555.09 375.85 a8.9 8.9 0 1 0 17.8 0 a8.9 8.9 0 1 0 -17.8 0zM478.01 420.35 a8.9 8.9 0 1 0 17.8 0 a8.9 8.9 0 1 0 -17.8 0zM400.93 375.85 a8.9 8.9 0 1 0 17.8 0 a8.9 8.9 0 1 0 -17.8 0zM400.93 286.85 a8.9 8.9 0 1 0 17.8 0 a8.9 8.9 0 1 0 -17.8 0zM478.01 1043.35 a8.9 8.9 0 1 0 17.8 0 a8.9 8.9 0 1 0 -17.8 0zM555.09 1087.85 a8.9 8.9 0 1 0 17.8 0 a8.9 8.9 0 1 0 -17.8 0zM555.09 1176.85 a8.9 8.9 0 1 0 17.8 0 a8.9 8.9 0 1 0 -17.8 0zM478.01 1221.35 a8.9 8.9 0 1 0 17.8 0 a8.9 8.9 0 1 0 -17.8 0zM400.93 1176.85 a8.9 8.9 0 1 0 17.8 0 a8.9 8.9 0 1 0 -17.8 0zM400.93 1087.85 a8.9 8.9 0 1 0 17.8 0 a8.9 8.9 0 1 0 -17.8 0zM709.25 909.85 a8.9 8.9 0 1 0 17.8 0 a8.9 8.9 0 1 0 -17.8 0zM786.32 954.35 a8.9 8.9 0 1 0 17.8 0 a8.9 8.9 0 1 0 -17.8 0zM786.32 1043.35 a8.9 8.9 0 1 0 17.8 0 a8.9 8.9 0 1 0 -17.8 0zM709.25 1087.85 a8.9 8.9 0 1 0 17.8 0 a8.9 8.9 0 1 0 -17.8 0zM632.17 1043.35 a8.9 8.9 0 1 0 17.8 0 a8.9 8.9 0 1 0 -17.8 0zM632.17 954.35 a8.9 8.9 0 1 0 17.8 0 a8.9 8.9 0 1 0 -17.8 0zM1094.64 -24.65 a8.9 8.9 0 1 0 17.8 0 a8.9 8.9 0 1 0 -17.8 0zM1171.72 19.85 a8.9 8.9 0 1 0 17.8 0 a8.9 8.9 0 1 0 -17.8 0zM1171.72 108.85 a8.9 8.9 0 1 0 17.8 0 a8.9 8.9 0 1 0 -17.8 0zM1094.64 153.35 a8.9 8.9 0 1 0 17.8 0 a8.9 8.9 0 1 0 -17.8 0zM1017.56 108.85 a8.9 8.9 0 1 0 17.8 0 a8.9 8.9 0 1 0 -17.8 0zM1017.56 19.85 a8.9 8.9 0 1 0 17.8 0 a8.9 8.9 0 1 0 -17.8 0zM1094.64 242.35 a8.9 8.9 0 1 0 17.8 0 a8.9 8.9 0 1 0 -17.8 0zM1171.72 286.85 a8.9 8.9 0 1 0 17.8 0 a8.9 8.9 0 1 0 -17.8 0zM1171.72 375.85 a8.9 8.9 0 1 0 17.8 0 a8.9 8.9 0 1 0 -17.8 0zM1094.64 420.35 a8.9 8.9 0 1 0 17.8 0 a8.9 8.9 0 1 0 -17.8 0zM1017.56 375.85 a8.9 8.9 0 1 0 17.8 0 a8.9 8.9 0 1 0 -17.8 0zM1017.56 286.85 a8.9 8.9 0 1 0 17.8 0 a8.9 8.9 0 1 0 -17.8 0zM1248.8 -24.65 a8.9 8.9 0 1 0 17.8 0 a8.9 8.9 0 1 0 -17.8 0zM1325.87 19.85 a8.9 8.9 0 1 0 17.8 0 a8.9 8.9 0 1 0 -17.8 0zM1325.87 108.85 a8.9 8.9 0 1 0 17.8 0 a8.9 8.9 0 1 0 -17.8 0zM1248.8 153.35 a8.9 8.9 0 1 0 17.8 0 a8.9 8.9 0 1 0 -17.8 0zM1402.95 776.35 a8.9 8.9 0 1 0 17.8 0 a8.9 8.9 0 1 0 -17.8 0zM1480.03 820.85 a8.9 8.9 0 1 0 17.8 0 a8.9 8.9 0 1 0 -17.8 0zM1480.03 909.85 a8.9 8.9 0 1 0 17.8 0 a8.9 8.9 0 1 0 -17.8 0zM1402.95 954.35 a8.9 8.9 0 1 0 17.8 0 a8.9 8.9 0 1 0 -17.8 0zM1325.87 909.85 a8.9 8.9 0 1 0 17.8 0 a8.9 8.9 0 1 0 -17.8 0zM1325.87 820.85 a8.9 8.9 0 1 0 17.8 0 a8.9 8.9 0 1 0 -17.8 0zM1711.27 242.35 a8.9 8.9 0 1 0 17.8 0 a8.9 8.9 0 1 0 -17.8 0zM1788.34 286.85 a8.9 8.9 0 1 0 17.8 0 a8.9 8.9 0 1 0 -17.8 0zM1788.34 375.85 a8.9 8.9 0 1 0 17.8 0 a8.9 8.9 0 1 0 -17.8 0zM1711.27 420.35 a8.9 8.9 0 1 0 17.8 0 a8.9 8.9 0 1 0 -17.8 0zM1634.19 375.85 a8.9 8.9 0 1 0 17.8 0 a8.9 8.9 0 1 0 -17.8 0zM1634.19 286.85 a8.9 8.9 0 1 0 17.8 0 a8.9 8.9 0 1 0 -17.8 0zM1865.42 -24.65 a8.9 8.9 0 1 0 17.8 0 a8.9 8.9 0 1 0 -17.8 0zM1942.5 19.85 a8.9 8.9 0 1 0 17.8 0 a8.9 8.9 0 1 0 -17.8 0zM1942.5 108.85 a8.9 8.9 0 1 0 17.8 0 a8.9 8.9 0 1 0 -17.8 0zM1865.42 153.35 a8.9 8.9 0 1 0 17.8 0 a8.9 8.9 0 1 0 -17.8 0zM1788.34 108.85 a8.9 8.9 0 1 0 17.8 0 a8.9 8.9 0 1 0 -17.8 0zM1788.34 19.85 a8.9 8.9 0 1 0 17.8 0 a8.9 8.9 0 1 0 -17.8 0zM1942.5 375.85 a8.9 8.9 0 1 0 17.8 0 a8.9 8.9 0 1 0 -17.8 0zM2019.58 420.35 a8.9 8.9 0 1 0 17.8 0 a8.9 8.9 0 1 0 -17.8 0zM2019.58 509.35 a8.9 8.9 0 1 0 17.8 0 a8.9 8.9 0 1 0 -17.8 0zM1942.5 553.85 a8.9 8.9 0 1 0 17.8 0 a8.9 8.9 0 1 0 -17.8 0zM1865.42 509.35 a8.9 8.9 0 1 0 17.8 0 a8.9 8.9 0 1 0 -17.8 0zM1865.42 420.35 a8.9 8.9 0 1 0 17.8 0 a8.9 8.9 0 1 0 -17.8 0z" fill="rgba(245, 136, 2, 1)"></path><path d="M69.24 806.22L194.82 878.72L194.82 1023.72L69.24 1096.22L-56.34 1023.72L-56.34 878.72zM445.97 153.72L571.55 226.22L571.55 371.22L445.97 443.72L320.39 371.22L320.39 226.22zM320.39 371.22L445.97 443.72L445.97 588.72L320.39 661.22L194.82 588.72L194.82 443.72zM948.28 588.72L1073.86 661.22L1073.86 806.22L948.28 878.72L822.7 806.22L822.7 661.22zM948.28 1023.72L1073.86 1096.22L1073.86 1241.22L948.28 1313.72L822.7 1241.22L822.7 1096.22zM1073.86 -63.78L1199.44 8.72L1199.44 153.72L1073.86 226.22L948.28 153.72L948.28 8.72zM1199.44 1023.72L1325.01 1096.22L1325.01 1241.22L1199.44 1313.72L1073.86 1241.22L1073.86 1096.22zM1325.01 371.22L1450.59 443.72L1450.59 588.72L1325.01 661.22L1199.44 588.72L1199.44 443.72zM1576.17 -63.78L1701.74 8.72L1701.74 153.72L1576.17 226.22L1450.59 153.72L1450.59 8.72zM1701.74 588.72L1827.32 661.22L1827.32 806.22L1701.74 878.72L1576.17 806.22L1576.17 661.22zM1576.17 806.22L1701.74 878.72L1701.74 1023.72L1576.17 1096.22L1450.59 1023.72L1450.59 878.72zM1827.32 -63.78L1952.9 8.72L1952.9 153.72L1827.32 226.22L1701.74 153.72L1701.74 8.72zM1827.32 371.22L1952.9 443.72L1952.9 588.72L1827.32 661.22L1701.74 588.72L1701.74 443.72z" stroke="rgba(255, 245, 1, 1)" stroke-width="2"></path></g><defs><mask id="SvgjsMask1165"><rect width="1920" height="1080" fill="#ffffff"></rect></mask></defs></svg>