<svg xmlns="http://www.w3.org/2000/svg" version="1.1" xmlns:xlink="http://www.w3.org/1999/xlink" xmlns:svgjs="http://svgjs.com/svgjs" width="1920" height="1080" preserveAspectRatio="none" viewBox="0 0 1920 1080"><g mask="url(&quot;#SvgjsMask1169&quot;)" fill="none"><rect width="1920" height="1080" x="0" y="0" fill="rgba(245, 81, 30, 1)"></rect><path d="M116.55 315.96L193.63 360.46L193.63 449.46L116.55 493.96L39.47 449.46L39.47 360.46zM39.47 449.46L116.55 493.96L116.55 582.96L39.47 627.46L-37.61 582.96L-37.61 493.96zM116.55 582.96L193.63 627.46L193.63 716.46L116.55 760.96L39.47 716.46L39.47 627.46zM39.47 983.46L116.55 1027.96L116.55 1116.96L39.47 1161.46L-37.61 1116.96L-37.61 1027.96zM270.71 48.96L347.78 93.46L347.78 182.46L270.71 226.96L193.63 182.46L193.63 93.46zM193.63 182.46L270.71 226.96L270.71 315.96L193.63 360.46L116.55 315.96L116.55 226.96zM193.63 983.46L270.71 1027.96L270.71 1116.96L193.63 1161.46L116.55 1116.96L116.55 1027.96zM424.86 315.96L501.94 360.46L501.94 449.46L424.86 493.96L347.78 449.46L347.78 360.46zM424.86 849.96L501.94 894.46L501.94 983.46L424.86 1027.96L347.78 983.46L347.78 894.46zM579.02 315.96L656.1 360.46L656.1 449.46L579.02 493.96L501.94 449.46L501.94 360.46zM501.94 449.46L579.02 493.96L579.02 582.96L501.94 627.46L424.86 582.96L424.86 493.96zM733.18 48.96L810.25 93.46L810.25 182.46L733.18 226.96L656.1 182.46L656.1 93.46zM656.1 182.46L733.18 226.96L733.18 315.96L656.1 360.46L579.02 315.96L579.02 226.96zM964.41 -84.54L1041.49 -40.04L1041.49 48.96L964.41 93.46L887.33 48.96L887.33 -40.04zM964.41 983.46L1041.49 1027.96L1041.49 1116.96L964.41 1161.46L887.33 1116.96L887.33 1027.96zM1118.57 449.46L1195.65 493.96L1195.65 582.96L1118.57 627.46L1041.49 582.96L1041.49 493.96zM1195.65 582.96L1272.73 627.46L1272.73 716.46L1195.65 760.96L1118.57 716.46L1118.57 627.46zM1272.73 449.46L1349.8 493.96L1349.8 582.96L1272.73 627.46L1195.65 582.96L1195.65 493.96zM1812.27 48.96L1889.35 93.46L1889.35 182.46L1812.27 226.96L1735.2 182.46L1735.2 93.46z" stroke="rgba(245, 136, 2, 1)" stroke-width="2"></path><path d="M107.65 315.96 a8.9 8.9 0 1 0 17.8 0 a8.9 8.9 0 1 0 -17.8 0zM184.73 360.46 a8.9 8.9 0 1 0 17.8 0 a8.9 8.9 0 1 0 -17.8 0zM184.73 449.46 a8.9 8.9 0 1 0 17.8 0 a8.9 8.9 0 1 0 -17.8 0zM107.65 493.96 a8.9 8.9 0 1 0 17.8 0 a8.9 8.9 0 1 0 -17.8 0zM30.57 449.46 a8.9 8.9 0 1 0 17.8 0 a8.9 8.9 0 1 0 -17.8 0zM30.57 360.46 a8.9 8.9 0 1 0 17.8 0 a8.9 8.9 0 1 0 -17.8 0zM107.65 582.96 a8.9 8.9 0 1 0 17.8 0 a8.9 8.9 0 1 0 -17.8 0zM30.57 627.46 a8.9 8.9 0 1 0 17.8 0 a8.9 8.9 0 1 0 -17.8 0zM-46.51 582.96 a8.9 8.9 0 1 0 17.8 0 a8.9 8.9 0 1 0 -17.8 0zM-46.51 493.96 a8.9 8.9 0 1 0 17.8 0 a8.9 8.9 0 1 0 -17.8 0zM184.73 627.46 a8.9 8.9 0 1 0 17.8 0 a8.9 8.9 0 1 0 -17.8 0zM184.73 716.46 a8.9 8.9 0 1 0 17.8 0 a8.9 8.9 0 1 0 -17.8 0zM107.65 760.96 a8.9 8.9 0 1 0 17.8 0 a8.9 8.9 0 1 0 -17.8 0zM30.57 716.46 a8.9 8.9 0 1 0 17.8 0 a8.9 8.9 0 1 0 -17.8 0zM30.57 983.46 a8.9 8.9 0 1 0 17.8 0 a8.9 8.9 0 1 0 -17.8 0zM107.65 1027.96 a8.9 8.9 0 1 0 17.8 0 a8.9 8.9 0 1 0 -17.8 0zM107.65 1116.96 a8.9 8.9 0 1 0 17.8 0 a8.9 8.9 0 1 0 -17.8 0zM30.57 1161.46 a8.9 8.9 0 1 0 17.8 0 a8.9 8.9 0 1 0 -17.8 0zM-46.51 1116.96 a8.9 8.9 0 1 0 17.8 0 a8.9 8.9 0 1 0 -17.8 0zM-46.51 1027.96 a8.9 8.9 0 1 0 17.8 0 a8.9 8.9 0 1 0 -17.8 0zM261.81 48.96 a8.9 8.9 0 1 0 17.8 0 a8.9 8.9 0 1 0 -17.8 0zM338.88 93.46 a8.9 8.9 0 1 0 17.8 0 a8.9 8.9 0 1 0 -17.8 0zM338.88 182.46 a8.9 8.9 0 1 0 17.8 0 a8.9 8.9 0 1 0 -17.8 0zM261.81 226.96 a8.9 8.9 0 1 0 17.8 0 a8.9 8.9 0 1 0 -17.8 0zM184.73 182.46 a8.9 8.9 0 1 0 17.8 0 a8.9 8.9 0 1 0 -17.8 0zM184.73 93.46 a8.9 8.9 0 1 0 17.8 0 a8.9 8.9 0 1 0 -17.8 0zM261.81 315.96 a8.9 8.9 0 1 0 17.8 0 a8.9 8.9 0 1 0 -17.8 0zM107.65 226.96 a8.9 8.9 0 1 0 17.8 0 a8.9 8.9 0 1 0 -17.8 0zM184.73 983.46 a8.9 8.9 0 1 0 17.8 0 a8.9 8.9 0 1 0 -17.8 0zM261.81 1027.96 a8.9 8.9 0 1 0 17.8 0 a8.9 8.9 0 1 0 -17.8 0zM261.81 1116.96 a8.9 8.9 0 1 0 17.8 0 a8.9 8.9 0 1 0 -17.8 0zM184.73 1161.46 a8.9 8.9 0 1 0 17.8 0 a8.9 8.9 0 1 0 -17.8 0zM415.96 315.96 a8.9 8.9 0 1 0 17.8 0 a8.9 8.9 0 1 0 -17.8 0zM493.04 360.46 a8.9 8.9 0 1 0 17.8 0 a8.9 8.9 0 1 0 -17.8 0zM493.04 449.46 a8.9 8.9 0 1 0 17.8 0 a8.9 8.9 0 1 0 -17.8 0zM415.96 493.96 a8.9 8.9 0 1 0 17.8 0 a8.9 8.9 0 1 0 -17.8 0zM338.88 449.46 a8.9 8.9 0 1 0 17.8 0 a8.9 8.9 0 1 0 -17.8 0zM338.88 360.46 a8.9 8.9 0 1 0 17.8 0 a8.9 8.9 0 1 0 -17.8 0zM415.96 849.96 a8.9 8.9 0 1 0 17.8 0 a8.9 8.9 0 1 0 -17.8 0zM493.04 894.46 a8.9 8.9 0 1 0 17.8 0 a8.9 8.9 0 1 0 -17.8 0zM493.04 983.46 a8.9 8.9 0 1 0 17.8 0 a8.9 8.9 0 1 0 -17.8 0zM415.96 1027.96 a8.9 8.9 0 1 0 17.8 0 a8.9 8.9 0 1 0 -17.8 0zM338.88 983.46 a8.9 8.9 0 1 0 17.8 0 a8.9 8.9 0 1 0 -17.8 0zM338.88 894.46 a8.9 8.9 0 1 0 17.8 0 a8.9 8.9 0 1 0 -17.8 0zM570.12 315.96 a8.9 8.9 0 1 0 17.8 0 a8.9 8.9 0 1 0 -17.8 0zM647.2 360.46 a8.9 8.9 0 1 0 17.8 0 a8.9 8.9 0 1 0 -17.8 0zM647.2 449.46 a8.9 8.9 0 1 0 17.8 0 a8.9 8.9 0 1 0 -17.8 0zM570.12 493.96 a8.9 8.9 0 1 0 17.8 0 a8.9 8.9 0 1 0 -17.8 0zM570.12 582.96 a8.9 8.9 0 1 0 17.8 0 a8.9 8.9 0 1 0 -17.8 0zM493.04 627.46 a8.9 8.9 0 1 0 17.8 0 a8.9 8.9 0 1 0 -17.8 0zM415.96 582.96 a8.9 8.9 0 1 0 17.8 0 a8.9 8.9 0 1 0 -17.8 0zM724.28 48.96 a8.9 8.9 0 1 0 17.8 0 a8.9 8.9 0 1 0 -17.8 0zM801.35 93.46 a8.9 8.9 0 1 0 17.8 0 a8.9 8.9 0 1 0 -17.8 0zM801.35 182.46 a8.9 8.9 0 1 0 17.8 0 a8.9 8.9 0 1 0 -17.8 0zM724.28 226.96 a8.9 8.9 0 1 0 17.8 0 a8.9 8.9 0 1 0 -17.8 0zM647.2 182.46 a8.9 8.9 0 1 0 17.8 0 a8.9 8.9 0 1 0 -17.8 0zM647.2 93.46 a8.9 8.9 0 1 0 17.8 0 a8.9 8.9 0 1 0 -17.8 0zM724.28 315.96 a8.9 8.9 0 1 0 17.8 0 a8.9 8.9 0 1 0 -17.8 0zM570.12 226.96 a8.9 8.9 0 1 0 17.8 0 a8.9 8.9 0 1 0 -17.8 0zM955.51 -84.54 a8.9 8.9 0 1 0 17.8 0 a8.9 8.9 0 1 0 -17.8 0zM1032.59 -40.04 a8.9 8.9 0 1 0 17.8 0 a8.9 8.9 0 1 0 -17.8 0zM1032.59 48.96 a8.9 8.9 0 1 0 17.8 0 a8.9 8.9 0 1 0 -17.8 0zM955.51 93.46 a8.9 8.9 0 1 0 17.8 0 a8.9 8.9 0 1 0 -17.8 0zM878.43 48.96 a8.9 8.9 0 1 0 17.8 0 a8.9 8.9 0 1 0 -17.8 0zM878.43 -40.04 a8.9 8.9 0 1 0 17.8 0 a8.9 8.9 0 1 0 -17.8 0zM955.51 983.46 a8.9 8.9 0 1 0 17.8 0 a8.9 8.9 0 1 0 -17.8 0zM1032.59 1027.96 a8.9 8.9 0 1 0 17.8 0 a8.9 8.9 0 1 0 -17.8 0zM1032.59 1116.96 a8.9 8.9 0 1 0 17.8 0 a8.9 8.9 0 1 0 -17.8 0zM955.51 1161.46 a8.9 8.9 0 1 0 17.8 0 a8.9 8.9 0 1 0 -17.8 0zM878.43 1116.96 a8.9 8.9 0 1 0 17.8 0 a8.9 8.9 0 1 0 -17.8 0zM878.43 1027.96 a8.9 8.9 0 1 0 17.8 0 a8.9 8.9 0 1 0 -17.8 0zM1109.67 449.46 a8.9 8.9 0 1 0 17.8 0 a8.9 8.9 0 1 0 -17.8 0zM1186.75 493.96 a8.9 8.9 0 1 0 17.8 0 a8.9 8.9 0 1 0 -17.8 0zM1186.75 582.96 a8.9 8.9 0 1 0 17.8 0 a8.9 8.9 0 1 0 -17.8 0zM1109.67 627.46 a8.9 8.9 0 1 0 17.8 0 a8.9 8.9 0 1 0 -17.8 0zM1032.59 582.96 a8.9 8.9 0 1 0 17.8 0 a8.9 8.9 0 1 0 -17.8 0zM1032.59 493.96 a8.9 8.9 0 1 0 17.8 0 a8.9 8.9 0 1 0 -17.8 0zM1263.83 627.46 a8.9 8.9 0 1 0 17.8 0 a8.9 8.9 0 1 0 -17.8 0zM1263.83 716.46 a8.9 8.9 0 1 0 17.8 0 a8.9 8.9 0 1 0 -17.8 0zM1186.75 760.96 a8.9 8.9 0 1 0 17.8 0 a8.9 8.9 0 1 0 -17.8 0zM1109.67 716.46 a8.9 8.9 0 1 0 17.8 0 a8.9 8.9 0 1 0 -17.8 0zM1263.83 449.46 a8.9 8.9 0 1 0 17.8 0 a8.9 8.9 0 1 0 -17.8 0zM1340.9 493.96 a8.9 8.9 0 1 0 17.8 0 a8.9 8.9 0 1 0 -17.8 0zM1340.9 582.96 a8.9 8.9 0 1 0 17.8 0 a8.9 8.9 0 1 0 -17.8 0zM1803.37 48.96 a8.9 8.9 0 1 0 17.8 0 a8.9 8.9 0 1 0 -17.8 0zM1880.45 93.46 a8.9 8.9 0 1 0 17.8 0 a8.9 8.9 0 1 0 -17.8 0zM1880.45 182.46 a8.9 8.9 0 1 0 17.8 0 a8.9 8.9 0 1 0 -17.8 0zM1803.37 226.96 a8.9 8.9 0 1 0 17.8 0 a8.9 8.9 0 1 0 -17.8 0zM1726.3 182.46 a8.9 8.9 0 1 0 17.8 0 a8.9 8.9 0 1 0 -17.8 0zM1726.3 93.46 a8.9 8.9 0 1 0 17.8 0 a8.9 8.9 0 1 0 -17.8 0z" fill="rgba(245, 136, 2, 1)"></path><path d="M3.2 404.28L128.78 476.78L128.78 621.78L3.2 694.28L-122.38 621.78L-122.38 476.78zM128.78 621.78L254.35 694.28L254.35 839.28L128.78 911.78L3.2 839.28L3.2 694.28zM254.35 -30.72L379.93 41.78L379.93 186.78L254.35 259.28L128.78 186.78L128.78 41.78zM379.93 186.78L505.51 259.28L505.51 404.28L379.93 476.78L254.35 404.28L254.35 259.28zM254.35 404.28L379.93 476.78L379.93 621.78L254.35 694.28L128.78 621.78L128.78 476.78zM379.93 621.78L505.51 694.28L505.51 839.28L379.93 911.78L254.35 839.28L254.35 694.28zM254.35 839.28L379.93 911.78L379.93 1056.78L254.35 1129.28L128.78 1056.78L128.78 911.78zM379.93 1056.78L505.51 1129.28L505.51 1274.28L379.93 1346.78L254.35 1274.28L254.35 1129.28zM756.66 -30.72L882.24 41.78L882.24 186.78L756.66 259.28L631.09 186.78L631.09 41.78zM882.24 621.78L1007.82 694.28L1007.82 839.28L882.24 911.78L756.66 839.28L756.66 694.28zM1133.4 1056.78L1258.97 1129.28L1258.97 1274.28L1133.4 1346.78L1007.82 1274.28L1007.82 1129.28zM1258.97 -30.72L1384.55 41.78L1384.55 186.78L1258.97 259.28L1133.4 186.78L1133.4 41.78zM1384.55 621.78L1510.13 694.28L1510.13 839.28L1384.55 911.78L1258.97 839.28L1258.97 694.28zM1384.55 1056.78L1510.13 1129.28L1510.13 1274.28L1384.55 1346.78L1258.97 1274.28L1258.97 1129.28zM1510.13 -30.72L1635.7 41.78L1635.7 186.78L1510.13 259.28L1384.55 186.78L1384.55 41.78zM1635.7 186.78L1761.28 259.28L1761.28 404.28L1635.7 476.78L1510.13 404.28L1510.13 259.28zM1510.13 839.28L1635.7 911.78L1635.7 1056.78L1510.13 1129.28L1384.55 1056.78L1384.55 911.78zM1635.7 1056.78L1761.28 1129.28L1761.28 1274.28L1635.7 1346.78L1510.13 1274.28L1510.13 1129.28zM1761.28 -30.72L1886.86 41.78L1886.86 186.78L1761.28 259.28L1635.7 186.78L1635.7 41.78zM1886.86 186.78L2012.44 259.28L2012.44 404.28L1886.86 476.78L1761.28 404.28L1761.28 259.28z" stroke="rgba(255, 245, 1, 1)" stroke-width="2"></path></g><defs><mask id="SvgjsMask1169"><rect width="1920" height="1080" fill="#ffffff"></rect></mask></defs></svg>