<svg xmlns="http://www.w3.org/2000/svg" version="1.1" xmlns:xlink="http://www.w3.org/1999/xlink" xmlns:svgjs="http://svgjs.com/svgjs" width="1920" height="1080" preserveAspectRatio="none" viewBox="0 0 1920 1080"><g mask="url(&quot;#SvgjsMask1178&quot;)" fill="none"><rect width="1920" height="1080" x="0" y="0" fill="rgba(245, 81, 30, 1)"></rect><path d="M143.28 346.48L220.36 390.98L220.36 479.98L143.28 524.48L66.2 479.98L66.2 390.98zM66.2 479.98L143.28 524.48L143.28 613.48L66.2 657.98L-10.88 613.48L-10.88 524.48zM66.2 746.98L143.28 791.48L143.28 880.48L66.2 924.98L-10.88 880.48L-10.88 791.48zM297.44 613.48L374.51 657.98L374.51 746.98L297.44 791.48L220.36 746.98L220.36 657.98zM297.44 880.48L374.51 924.98L374.51 1013.98L297.44 1058.48L220.36 1013.98L220.36 924.98zM451.59 79.48L528.67 123.98L528.67 212.98L451.59 257.48L374.51 212.98L374.51 123.98zM605.75 79.48L682.83 123.98L682.83 212.98L605.75 257.48L528.67 212.98L528.67 123.98zM682.83 -54.02L759.91 -9.52L759.91 79.48L682.83 123.98L605.75 79.48L605.75 -9.52zM759.91 79.48L836.98 123.98L836.98 212.98L759.91 257.48L682.83 212.98L682.83 123.98zM682.83 212.98L759.91 257.48L759.91 346.48L682.83 390.98L605.75 346.48L605.75 257.48zM759.91 346.48L836.98 390.98L836.98 479.98L759.91 524.48L682.83 479.98L682.83 390.98zM1068.22 346.48L1145.3 390.98L1145.3 479.98L1068.22 524.48L991.14 479.98L991.14 390.98zM1376.53 79.48L1453.61 123.98L1453.61 212.98L1376.53 257.48L1299.46 212.98L1299.46 123.98zM1299.46 212.98L1376.53 257.48L1376.53 346.48L1299.46 390.98L1222.38 346.48L1222.38 257.48zM1376.53 880.48L1453.61 924.98L1453.61 1013.98L1376.53 1058.48L1299.46 1013.98L1299.46 924.98zM1299.46 1013.98L1376.53 1058.48L1376.53 1147.48L1299.46 1191.98L1222.38 1147.48L1222.38 1058.48zM1530.69 880.48L1607.77 924.98L1607.77 1013.98L1530.69 1058.48L1453.61 1013.98L1453.61 924.98zM1453.61 1013.98L1530.69 1058.48L1530.69 1147.48L1453.61 1191.98L1376.53 1147.48L1376.53 1058.48zM1684.85 79.48L1761.93 123.98L1761.93 212.98L1684.85 257.48L1607.77 212.98L1607.77 123.98zM1684.85 880.48L1761.93 924.98L1761.93 1013.98L1684.85 1058.48L1607.77 1013.98L1607.77 924.98zM1761.93 -54.02L1839 -9.52L1839 79.48L1761.93 123.98L1684.85 79.48L1684.85 -9.52zM1839 880.48L1916.08 924.98L1916.08 1013.98L1839 1058.48L1761.93 1013.98L1761.93 924.98zM1916.08 -54.02L1993.16 -9.52L1993.16 79.48L1916.08 123.98L1839 79.48L1839 -9.52z" stroke="rgba(245, 136, 2, 1)" stroke-width="2"></path><path d="M134.38 346.48 a8.9 8.9 0 1 0 17.8 0 a8.9 8.9 0 1 0 -17.8 0zM211.46 390.98 a8.9 8.9 0 1 0 17.8 0 a8.9 8.9 0 1 0 -17.8 0zM211.46 479.98 a8.9 8.9 0 1 0 17.8 0 a8.9 8.9 0 1 0 -17.8 0zM134.38 524.48 a8.9 8.9 0 1 0 17.8 0 a8.9 8.9 0 1 0 -17.8 0zM57.3 479.98 a8.9 8.9 0 1 0 17.8 0 a8.9 8.9 0 1 0 -17.8 0zM57.3 390.98 a8.9 8.9 0 1 0 17.8 0 a8.9 8.9 0 1 0 -17.8 0zM134.38 613.48 a8.9 8.9 0 1 0 17.8 0 a8.9 8.9 0 1 0 -17.8 0zM57.3 657.98 a8.9 8.9 0 1 0 17.8 0 a8.9 8.9 0 1 0 -17.8 0zM-19.78 613.48 a8.9 8.9 0 1 0 17.8 0 a8.9 8.9 0 1 0 -17.8 0zM-19.78 524.48 a8.9 8.9 0 1 0 17.8 0 a8.9 8.9 0 1 0 -17.8 0zM57.3 746.98 a8.9 8.9 0 1 0 17.8 0 a8.9 8.9 0 1 0 -17.8 0zM134.38 791.48 a8.9 8.9 0 1 0 17.8 0 a8.9 8.9 0 1 0 -17.8 0zM134.38 880.48 a8.9 8.9 0 1 0 17.8 0 a8.9 8.9 0 1 0 -17.8 0zM57.3 924.98 a8.9 8.9 0 1 0 17.8 0 a8.9 8.9 0 1 0 -17.8 0zM-19.78 880.48 a8.9 8.9 0 1 0 17.8 0 a8.9 8.9 0 1 0 -17.8 0zM-19.78 791.48 a8.9 8.9 0 1 0 17.8 0 a8.9 8.9 0 1 0 -17.8 0zM288.54 613.48 a8.9 8.9 0 1 0 17.8 0 a8.9 8.9 0 1 0 -17.8 0zM365.61 657.98 a8.9 8.9 0 1 0 17.8 0 a8.9 8.9 0 1 0 -17.8 0zM365.61 746.98 a8.9 8.9 0 1 0 17.8 0 a8.9 8.9 0 1 0 -17.8 0zM288.54 791.48 a8.9 8.9 0 1 0 17.8 0 a8.9 8.9 0 1 0 -17.8 0zM211.46 746.98 a8.9 8.9 0 1 0 17.8 0 a8.9 8.9 0 1 0 -17.8 0zM211.46 657.98 a8.9 8.9 0 1 0 17.8 0 a8.9 8.9 0 1 0 -17.8 0zM288.54 880.48 a8.9 8.9 0 1 0 17.8 0 a8.9 8.9 0 1 0 -17.8 0zM365.61 924.98 a8.9 8.9 0 1 0 17.8 0 a8.9 8.9 0 1 0 -17.8 0zM365.61 1013.98 a8.9 8.9 0 1 0 17.8 0 a8.9 8.9 0 1 0 -17.8 0zM288.54 1058.48 a8.9 8.9 0 1 0 17.8 0 a8.9 8.9 0 1 0 -17.8 0zM211.46 1013.98 a8.9 8.9 0 1 0 17.8 0 a8.9 8.9 0 1 0 -17.8 0zM211.46 924.98 a8.9 8.9 0 1 0 17.8 0 a8.9 8.9 0 1 0 -17.8 0zM442.69 79.48 a8.9 8.9 0 1 0 17.8 0 a8.9 8.9 0 1 0 -17.8 0zM519.77 123.98 a8.9 8.9 0 1 0 17.8 0 a8.9 8.9 0 1 0 -17.8 0zM519.77 212.98 a8.9 8.9 0 1 0 17.8 0 a8.9 8.9 0 1 0 -17.8 0zM442.69 257.48 a8.9 8.9 0 1 0 17.8 0 a8.9 8.9 0 1 0 -17.8 0zM365.61 212.98 a8.9 8.9 0 1 0 17.8 0 a8.9 8.9 0 1 0 -17.8 0zM365.61 123.98 a8.9 8.9 0 1 0 17.8 0 a8.9 8.9 0 1 0 -17.8 0zM596.85 79.48 a8.9 8.9 0 1 0 17.8 0 a8.9 8.9 0 1 0 -17.8 0zM673.93 123.98 a8.9 8.9 0 1 0 17.8 0 a8.9 8.9 0 1 0 -17.8 0zM673.93 212.98 a8.9 8.9 0 1 0 17.8 0 a8.9 8.9 0 1 0 -17.8 0zM596.85 257.48 a8.9 8.9 0 1 0 17.8 0 a8.9 8.9 0 1 0 -17.8 0zM673.93 -54.02 a8.9 8.9 0 1 0 17.8 0 a8.9 8.9 0 1 0 -17.8 0zM751.01 -9.52 a8.9 8.9 0 1 0 17.8 0 a8.9 8.9 0 1 0 -17.8 0zM751.01 79.48 a8.9 8.9 0 1 0 17.8 0 a8.9 8.9 0 1 0 -17.8 0zM596.85 -9.52 a8.9 8.9 0 1 0 17.8 0 a8.9 8.9 0 1 0 -17.8 0zM828.08 123.98 a8.9 8.9 0 1 0 17.8 0 a8.9 8.9 0 1 0 -17.8 0zM828.08 212.98 a8.9 8.9 0 1 0 17.8 0 a8.9 8.9 0 1 0 -17.8 0zM751.01 257.48 a8.9 8.9 0 1 0 17.8 0 a8.9 8.9 0 1 0 -17.8 0zM751.01 346.48 a8.9 8.9 0 1 0 17.8 0 a8.9 8.9 0 1 0 -17.8 0zM673.93 390.98 a8.9 8.9 0 1 0 17.8 0 a8.9 8.9 0 1 0 -17.8 0zM596.85 346.48 a8.9 8.9 0 1 0 17.8 0 a8.9 8.9 0 1 0 -17.8 0zM828.08 390.98 a8.9 8.9 0 1 0 17.8 0 a8.9 8.9 0 1 0 -17.8 0zM828.08 479.98 a8.9 8.9 0 1 0 17.8 0 a8.9 8.9 0 1 0 -17.8 0zM751.01 524.48 a8.9 8.9 0 1 0 17.8 0 a8.9 8.9 0 1 0 -17.8 0zM673.93 479.98 a8.9 8.9 0 1 0 17.8 0 a8.9 8.9 0 1 0 -17.8 0zM1059.32 346.48 a8.9 8.9 0 1 0 17.8 0 a8.9 8.9 0 1 0 -17.8 0zM1136.4 390.98 a8.9 8.9 0 1 0 17.8 0 a8.9 8.9 0 1 0 -17.8 0zM1136.4 479.98 a8.9 8.9 0 1 0 17.8 0 a8.9 8.9 0 1 0 -17.8 0zM1059.32 524.48 a8.9 8.9 0 1 0 17.8 0 a8.9 8.9 0 1 0 -17.8 0zM982.24 479.98 a8.9 8.9 0 1 0 17.8 0 a8.9 8.9 0 1 0 -17.8 0zM982.24 390.98 a8.9 8.9 0 1 0 17.8 0 a8.9 8.9 0 1 0 -17.8 0zM1367.63 79.48 a8.9 8.9 0 1 0 17.8 0 a8.9 8.9 0 1 0 -17.8 0zM1444.71 123.98 a8.9 8.9 0 1 0 17.8 0 a8.9 8.9 0 1 0 -17.8 0zM1444.71 212.98 a8.9 8.9 0 1 0 17.8 0 a8.9 8.9 0 1 0 -17.8 0zM1367.63 257.48 a8.9 8.9 0 1 0 17.8 0 a8.9 8.9 0 1 0 -17.8 0zM1290.56 212.98 a8.9 8.9 0 1 0 17.8 0 a8.9 8.9 0 1 0 -17.8 0zM1290.56 123.98 a8.9 8.9 0 1 0 17.8 0 a8.9 8.9 0 1 0 -17.8 0zM1367.63 346.48 a8.9 8.9 0 1 0 17.8 0 a8.9 8.9 0 1 0 -17.8 0zM1290.56 390.98 a8.9 8.9 0 1 0 17.8 0 a8.9 8.9 0 1 0 -17.8 0zM1213.48 346.48 a8.9 8.9 0 1 0 17.8 0 a8.9 8.9 0 1 0 -17.8 0zM1213.48 257.48 a8.9 8.9 0 1 0 17.8 0 a8.9 8.9 0 1 0 -17.8 0zM1367.63 880.48 a8.9 8.9 0 1 0 17.8 0 a8.9 8.9 0 1 0 -17.8 0zM1444.71 924.98 a8.9 8.9 0 1 0 17.8 0 a8.9 8.9 0 1 0 -17.8 0zM1444.71 1013.98 a8.9 8.9 0 1 0 17.8 0 a8.9 8.9 0 1 0 -17.8 0zM1367.63 1058.48 a8.9 8.9 0 1 0 17.8 0 a8.9 8.9 0 1 0 -17.8 0zM1290.56 1013.98 a8.9 8.9 0 1 0 17.8 0 a8.9 8.9 0 1 0 -17.8 0zM1290.56 924.98 a8.9 8.9 0 1 0 17.8 0 a8.9 8.9 0 1 0 -17.8 0zM1367.63 1147.48 a8.9 8.9 0 1 0 17.8 0 a8.9 8.9 0 1 0 -17.8 0zM1290.56 1191.98 a8.9 8.9 0 1 0 17.8 0 a8.9 8.9 0 1 0 -17.8 0zM1213.48 1147.48 a8.9 8.9 0 1 0 17.8 0 a8.9 8.9 0 1 0 -17.8 0zM1213.48 1058.48 a8.9 8.9 0 1 0 17.8 0 a8.9 8.9 0 1 0 -17.8 0zM1521.79 880.48 a8.9 8.9 0 1 0 17.8 0 a8.9 8.9 0 1 0 -17.8 0zM1598.87 924.98 a8.9 8.9 0 1 0 17.8 0 a8.9 8.9 0 1 0 -17.8 0zM1598.87 1013.98 a8.9 8.9 0 1 0 17.8 0 a8.9 8.9 0 1 0 -17.8 0zM1521.79 1058.48 a8.9 8.9 0 1 0 17.8 0 a8.9 8.9 0 1 0 -17.8 0zM1521.79 1147.48 a8.9 8.9 0 1 0 17.8 0 a8.9 8.9 0 1 0 -17.8 0zM1444.71 1191.98 a8.9 8.9 0 1 0 17.8 0 a8.9 8.9 0 1 0 -17.8 0zM1675.95 79.48 a8.9 8.9 0 1 0 17.8 0 a8.9 8.9 0 1 0 -17.8 0zM1753.03 123.98 a8.9 8.9 0 1 0 17.8 0 a8.9 8.9 0 1 0 -17.8 0zM1753.03 212.98 a8.9 8.9 0 1 0 17.8 0 a8.9 8.9 0 1 0 -17.8 0zM1675.95 257.48 a8.9 8.9 0 1 0 17.8 0 a8.9 8.9 0 1 0 -17.8 0zM1598.87 212.98 a8.9 8.9 0 1 0 17.8 0 a8.9 8.9 0 1 0 -17.8 0zM1598.87 123.98 a8.9 8.9 0 1 0 17.8 0 a8.9 8.9 0 1 0 -17.8 0zM1675.95 880.48 a8.9 8.9 0 1 0 17.8 0 a8.9 8.9 0 1 0 -17.8 0zM1753.03 924.98 a8.9 8.9 0 1 0 17.8 0 a8.9 8.9 0 1 0 -17.8 0zM1753.03 1013.98 a8.9 8.9 0 1 0 17.8 0 a8.9 8.9 0 1 0 -17.8 0zM1675.95 1058.48 a8.9 8.9 0 1 0 17.8 0 a8.9 8.9 0 1 0 -17.8 0zM1753.03 -54.02 a8.9 8.9 0 1 0 17.8 0 a8.9 8.9 0 1 0 -17.8 0zM1830.1 -9.52 a8.9 8.9 0 1 0 17.8 0 a8.9 8.9 0 1 0 -17.8 0zM1830.1 79.48 a8.9 8.9 0 1 0 17.8 0 a8.9 8.9 0 1 0 -17.8 0zM1675.95 -9.52 a8.9 8.9 0 1 0 17.8 0 a8.9 8.9 0 1 0 -17.8 0zM1830.1 880.48 a8.9 8.9 0 1 0 17.8 0 a8.9 8.9 0 1 0 -17.8 0zM1907.18 924.98 a8.9 8.9 0 1 0 17.8 0 a8.9 8.9 0 1 0 -17.8 0zM1907.18 1013.98 a8.9 8.9 0 1 0 17.8 0 a8.9 8.9 0 1 0 -17.8 0zM1830.1 1058.48 a8.9 8.9 0 1 0 17.8 0 a8.9 8.9 0 1 0 -17.8 0zM1907.18 -54.02 a8.9 8.9 0 1 0 17.8 0 a8.9 8.9 0 1 0 -17.8 0zM1984.26 -9.52 a8.9 8.9 0 1 0 17.8 0 a8.9 8.9 0 1 0 -17.8 0zM1984.26 79.48 a8.9 8.9 0 1 0 17.8 0 a8.9 8.9 0 1 0 -17.8 0zM1907.18 123.98 a8.9 8.9 0 1 0 17.8 0 a8.9 8.9 0 1 0 -17.8 0z" fill="rgba(245, 136, 2, 1)"></path><path d="M927.91 984.52L1053.49 1057.02L1053.49 1202.02L927.91 1274.52L802.33 1202.02L802.33 1057.02zM1179.07 114.52L1304.64 187.02L1304.64 332.02L1179.07 404.52L1053.49 332.02L1053.49 187.02zM1304.64 -102.98L1430.22 -30.48L1430.22 114.52L1304.64 187.02L1179.07 114.52L1179.07 -30.48zM1806.95 332.02L1932.53 404.52L1932.53 549.52L1806.95 622.02L1681.37 549.52L1681.37 404.52zM1932.53 549.52L2058.11 622.02L2058.11 767.02L1932.53 839.52L1806.95 767.02L1806.95 622.02zM1932.53 984.52L2058.11 1057.02L2058.11 1202.02L1932.53 1274.52L1806.95 1202.02L1806.95 1057.02z" stroke="rgba(255, 245, 1, 1)" stroke-width="2"></path></g><defs><mask id="SvgjsMask1178"><rect width="1920" height="1080" fill="#ffffff"></rect></mask></defs></svg>