<svg xmlns="http://www.w3.org/2000/svg" version="1.1" xmlns:xlink="http://www.w3.org/1999/xlink" xmlns:svgjs="http://svgjs.com/svgjs" width="1920" height="1080" preserveAspectRatio="none" viewBox="0 0 1920 1080"><g mask="url(&quot;#SvgjsMask1263&quot;)" fill="none"><rect width="1920" height="1080" x="0" y="0" fill="rgba(245, 81, 30, 1)"></rect><path d="M91.95 407.49L170.76 452.99L170.76 543.99L91.95 589.49L13.14 543.99L13.14 452.99zM91.95 953.49L170.76 998.99L170.76 1089.99L91.95 1135.49L13.14 1089.99L13.14 998.99zM170.76 -2.01L249.57 43.49L249.57 134.49L170.76 179.99L91.95 134.49L91.95 43.49zM249.57 134.49L328.38 179.99L328.38 270.99L249.57 316.49L170.76 270.99L170.76 179.99zM170.76 270.99L249.57 316.49L249.57 407.49L170.76 452.99L91.95 407.49L91.95 316.49zM249.57 680.49L328.38 725.99L328.38 816.99L249.57 862.49L170.76 816.99L170.76 725.99zM328.38 816.99L407.19 862.49L407.19 953.49L328.38 998.99L249.57 953.49L249.57 862.49zM407.19 953.49L486 998.99L486 1089.99L407.19 1135.49L328.38 1089.99L328.38 998.99zM486 -2.01L564.81 43.49L564.81 134.49L486 179.99L407.19 134.49L407.19 43.49zM486 270.99L564.81 316.49L564.81 407.49L486 452.99L407.19 407.49L407.19 316.49zM486 543.99L564.81 589.49L564.81 680.49L486 725.99L407.19 680.49L407.19 589.49zM643.62 543.99L722.43 589.49L722.43 680.49L643.62 725.99L564.81 680.49L564.81 589.49zM958.87 -2.01L1037.68 43.49L1037.68 134.49L958.87 179.99L880.06 134.49L880.06 43.49zM1037.68 407.49L1116.49 452.99L1116.49 543.99L1037.68 589.49L958.87 543.99L958.87 452.99zM1116.49 -2.01L1195.3 43.49L1195.3 134.49L1116.49 179.99L1037.68 134.49L1037.68 43.49zM1116.49 1089.99L1195.3 1135.49L1195.3 1226.49L1116.49 1271.99L1037.68 1226.49L1037.68 1135.49zM1352.92 134.49L1431.73 179.99L1431.73 270.99L1352.92 316.49L1274.11 270.99L1274.11 179.99zM1352.92 680.49L1431.73 725.99L1431.73 816.99L1352.92 862.49L1274.11 816.99L1274.11 725.99zM1510.54 134.49L1589.35 179.99L1589.35 270.99L1510.54 316.49L1431.73 270.99L1431.73 179.99zM1589.35 816.99L1668.16 862.49L1668.16 953.49L1589.35 998.99L1510.54 953.49L1510.54 862.49zM1825.78 134.49L1904.59 179.99L1904.59 270.99L1825.78 316.49L1746.97 270.99L1746.97 179.99zM1746.97 543.99L1825.78 589.49L1825.78 680.49L1746.97 725.99L1668.16 680.49L1668.16 589.49zM1904.59 270.99L1983.4 316.49L1983.4 407.49L1904.59 452.99L1825.78 407.49L1825.78 316.49zM1983.4 407.49L2062.21 452.99L2062.21 543.99L1983.4 589.49L1904.59 543.99L1904.59 452.99zM1983.4 680.49L2062.21 725.99L2062.21 816.99L1983.4 862.49L1904.59 816.99L1904.59 725.99zM1904.59 1089.99L1983.4 1135.49L1983.4 1226.49L1904.59 1271.99L1825.78 1226.49L1825.78 1135.49z" stroke="rgba(245, 136, 2, 1)" stroke-width="2"></path><path d="M82.85 407.49 a9.1 9.1 0 1 0 18.2 0 a9.1 9.1 0 1 0 -18.2 0zM161.66 452.99 a9.1 9.1 0 1 0 18.2 0 a9.1 9.1 0 1 0 -18.2 0zM161.66 543.99 a9.1 9.1 0 1 0 18.2 0 a9.1 9.1 0 1 0 -18.2 0zM82.85 589.49 a9.1 9.1 0 1 0 18.2 0 a9.1 9.1 0 1 0 -18.2 0zM4.04 543.99 a9.1 9.1 0 1 0 18.2 0 a9.1 9.1 0 1 0 -18.2 0zM4.04 452.99 a9.1 9.1 0 1 0 18.2 0 a9.1 9.1 0 1 0 -18.2 0zM82.85 953.49 a9.1 9.1 0 1 0 18.2 0 a9.1 9.1 0 1 0 -18.2 0zM161.66 998.99 a9.1 9.1 0 1 0 18.2 0 a9.1 9.1 0 1 0 -18.2 0zM161.66 1089.99 a9.1 9.1 0 1 0 18.2 0 a9.1 9.1 0 1 0 -18.2 0zM82.85 1135.49 a9.1 9.1 0 1 0 18.2 0 a9.1 9.1 0 1 0 -18.2 0zM4.04 1089.99 a9.1 9.1 0 1 0 18.2 0 a9.1 9.1 0 1 0 -18.2 0zM4.04 998.99 a9.1 9.1 0 1 0 18.2 0 a9.1 9.1 0 1 0 -18.2 0zM161.66 -2.01 a9.1 9.1 0 1 0 18.2 0 a9.1 9.1 0 1 0 -18.2 0zM240.47 43.49 a9.1 9.1 0 1 0 18.2 0 a9.1 9.1 0 1 0 -18.2 0zM240.47 134.49 a9.1 9.1 0 1 0 18.2 0 a9.1 9.1 0 1 0 -18.2 0zM161.66 179.99 a9.1 9.1 0 1 0 18.2 0 a9.1 9.1 0 1 0 -18.2 0zM82.85 134.49 a9.1 9.1 0 1 0 18.2 0 a9.1 9.1 0 1 0 -18.2 0zM82.85 43.49 a9.1 9.1 0 1 0 18.2 0 a9.1 9.1 0 1 0 -18.2 0zM319.28 179.99 a9.1 9.1 0 1 0 18.2 0 a9.1 9.1 0 1 0 -18.2 0zM319.28 270.99 a9.1 9.1 0 1 0 18.2 0 a9.1 9.1 0 1 0 -18.2 0zM240.47 316.49 a9.1 9.1 0 1 0 18.2 0 a9.1 9.1 0 1 0 -18.2 0zM161.66 270.99 a9.1 9.1 0 1 0 18.2 0 a9.1 9.1 0 1 0 -18.2 0zM240.47 407.49 a9.1 9.1 0 1 0 18.2 0 a9.1 9.1 0 1 0 -18.2 0zM82.85 316.49 a9.1 9.1 0 1 0 18.2 0 a9.1 9.1 0 1 0 -18.2 0zM240.47 680.49 a9.1 9.1 0 1 0 18.2 0 a9.1 9.1 0 1 0 -18.2 0zM319.28 725.99 a9.1 9.1 0 1 0 18.2 0 a9.1 9.1 0 1 0 -18.2 0zM319.28 816.99 a9.1 9.1 0 1 0 18.2 0 a9.1 9.1 0 1 0 -18.2 0zM240.47 862.49 a9.1 9.1 0 1 0 18.2 0 a9.1 9.1 0 1 0 -18.2 0zM161.66 816.99 a9.1 9.1 0 1 0 18.2 0 a9.1 9.1 0 1 0 -18.2 0zM161.66 725.99 a9.1 9.1 0 1 0 18.2 0 a9.1 9.1 0 1 0 -18.2 0zM398.09 862.49 a9.1 9.1 0 1 0 18.2 0 a9.1 9.1 0 1 0 -18.2 0zM398.09 953.49 a9.1 9.1 0 1 0 18.2 0 a9.1 9.1 0 1 0 -18.2 0zM319.28 998.99 a9.1 9.1 0 1 0 18.2 0 a9.1 9.1 0 1 0 -18.2 0zM240.47 953.49 a9.1 9.1 0 1 0 18.2 0 a9.1 9.1 0 1 0 -18.2 0zM476.9 998.99 a9.1 9.1 0 1 0 18.2 0 a9.1 9.1 0 1 0 -18.2 0zM476.9 1089.99 a9.1 9.1 0 1 0 18.2 0 a9.1 9.1 0 1 0 -18.2 0zM398.09 1135.49 a9.1 9.1 0 1 0 18.2 0 a9.1 9.1 0 1 0 -18.2 0zM319.28 1089.99 a9.1 9.1 0 1 0 18.2 0 a9.1 9.1 0 1 0 -18.2 0zM476.9 -2.01 a9.1 9.1 0 1 0 18.2 0 a9.1 9.1 0 1 0 -18.2 0zM555.71 43.49 a9.1 9.1 0 1 0 18.2 0 a9.1 9.1 0 1 0 -18.2 0zM555.71 134.49 a9.1 9.1 0 1 0 18.2 0 a9.1 9.1 0 1 0 -18.2 0zM476.9 179.99 a9.1 9.1 0 1 0 18.2 0 a9.1 9.1 0 1 0 -18.2 0zM398.09 134.49 a9.1 9.1 0 1 0 18.2 0 a9.1 9.1 0 1 0 -18.2 0zM398.09 43.49 a9.1 9.1 0 1 0 18.2 0 a9.1 9.1 0 1 0 -18.2 0zM476.9 270.99 a9.1 9.1 0 1 0 18.2 0 a9.1 9.1 0 1 0 -18.2 0zM555.71 316.49 a9.1 9.1 0 1 0 18.2 0 a9.1 9.1 0 1 0 -18.2 0zM555.71 407.49 a9.1 9.1 0 1 0 18.2 0 a9.1 9.1 0 1 0 -18.2 0zM476.9 452.99 a9.1 9.1 0 1 0 18.2 0 a9.1 9.1 0 1 0 -18.2 0zM398.09 407.49 a9.1 9.1 0 1 0 18.2 0 a9.1 9.1 0 1 0 -18.2 0zM398.09 316.49 a9.1 9.1 0 1 0 18.2 0 a9.1 9.1 0 1 0 -18.2 0zM476.9 543.99 a9.1 9.1 0 1 0 18.2 0 a9.1 9.1 0 1 0 -18.2 0zM555.71 589.49 a9.1 9.1 0 1 0 18.2 0 a9.1 9.1 0 1 0 -18.2 0zM555.71 680.49 a9.1 9.1 0 1 0 18.2 0 a9.1 9.1 0 1 0 -18.2 0zM476.9 725.99 a9.1 9.1 0 1 0 18.2 0 a9.1 9.1 0 1 0 -18.2 0zM398.09 680.49 a9.1 9.1 0 1 0 18.2 0 a9.1 9.1 0 1 0 -18.2 0zM398.09 589.49 a9.1 9.1 0 1 0 18.2 0 a9.1 9.1 0 1 0 -18.2 0zM634.52 543.99 a9.1 9.1 0 1 0 18.2 0 a9.1 9.1 0 1 0 -18.2 0zM713.33 589.49 a9.1 9.1 0 1 0 18.2 0 a9.1 9.1 0 1 0 -18.2 0zM713.33 680.49 a9.1 9.1 0 1 0 18.2 0 a9.1 9.1 0 1 0 -18.2 0zM634.52 725.99 a9.1 9.1 0 1 0 18.2 0 a9.1 9.1 0 1 0 -18.2 0zM949.77 -2.01 a9.1 9.1 0 1 0 18.2 0 a9.1 9.1 0 1 0 -18.2 0zM1028.58 43.49 a9.1 9.1 0 1 0 18.2 0 a9.1 9.1 0 1 0 -18.2 0zM1028.58 134.49 a9.1 9.1 0 1 0 18.2 0 a9.1 9.1 0 1 0 -18.2 0zM949.77 179.99 a9.1 9.1 0 1 0 18.2 0 a9.1 9.1 0 1 0 -18.2 0zM870.96 134.49 a9.1 9.1 0 1 0 18.2 0 a9.1 9.1 0 1 0 -18.2 0zM870.96 43.49 a9.1 9.1 0 1 0 18.2 0 a9.1 9.1 0 1 0 -18.2 0zM1028.58 407.49 a9.1 9.1 0 1 0 18.2 0 a9.1 9.1 0 1 0 -18.2 0zM1107.39 452.99 a9.1 9.1 0 1 0 18.2 0 a9.1 9.1 0 1 0 -18.2 0zM1107.39 543.99 a9.1 9.1 0 1 0 18.2 0 a9.1 9.1 0 1 0 -18.2 0zM1028.58 589.49 a9.1 9.1 0 1 0 18.2 0 a9.1 9.1 0 1 0 -18.2 0zM949.77 543.99 a9.1 9.1 0 1 0 18.2 0 a9.1 9.1 0 1 0 -18.2 0zM949.77 452.99 a9.1 9.1 0 1 0 18.2 0 a9.1 9.1 0 1 0 -18.2 0zM1107.39 -2.01 a9.1 9.1 0 1 0 18.2 0 a9.1 9.1 0 1 0 -18.2 0zM1186.2 43.49 a9.1 9.1 0 1 0 18.2 0 a9.1 9.1 0 1 0 -18.2 0zM1186.2 134.49 a9.1 9.1 0 1 0 18.2 0 a9.1 9.1 0 1 0 -18.2 0zM1107.39 179.99 a9.1 9.1 0 1 0 18.2 0 a9.1 9.1 0 1 0 -18.2 0zM1107.39 1089.99 a9.1 9.1 0 1 0 18.2 0 a9.1 9.1 0 1 0 -18.2 0zM1186.2 1135.49 a9.1 9.1 0 1 0 18.2 0 a9.1 9.1 0 1 0 -18.2 0zM1186.2 1226.49 a9.1 9.1 0 1 0 18.2 0 a9.1 9.1 0 1 0 -18.2 0zM1107.39 1271.99 a9.1 9.1 0 1 0 18.2 0 a9.1 9.1 0 1 0 -18.2 0zM1028.58 1226.49 a9.1 9.1 0 1 0 18.2 0 a9.1 9.1 0 1 0 -18.2 0zM1028.58 1135.49 a9.1 9.1 0 1 0 18.2 0 a9.1 9.1 0 1 0 -18.2 0zM1343.82 134.49 a9.1 9.1 0 1 0 18.2 0 a9.1 9.1 0 1 0 -18.2 0zM1422.63 179.99 a9.1 9.1 0 1 0 18.2 0 a9.1 9.1 0 1 0 -18.2 0zM1422.63 270.99 a9.1 9.1 0 1 0 18.2 0 a9.1 9.1 0 1 0 -18.2 0zM1343.82 316.49 a9.1 9.1 0 1 0 18.2 0 a9.1 9.1 0 1 0 -18.2 0zM1265.01 270.99 a9.1 9.1 0 1 0 18.2 0 a9.1 9.1 0 1 0 -18.2 0zM1265.01 179.99 a9.1 9.1 0 1 0 18.2 0 a9.1 9.1 0 1 0 -18.2 0zM1343.82 680.49 a9.1 9.1 0 1 0 18.2 0 a9.1 9.1 0 1 0 -18.2 0zM1422.63 725.99 a9.1 9.1 0 1 0 18.2 0 a9.1 9.1 0 1 0 -18.2 0zM1422.63 816.99 a9.1 9.1 0 1 0 18.2 0 a9.1 9.1 0 1 0 -18.2 0zM1343.82 862.49 a9.1 9.1 0 1 0 18.2 0 a9.1 9.1 0 1 0 -18.2 0zM1265.01 816.99 a9.1 9.1 0 1 0 18.2 0 a9.1 9.1 0 1 0 -18.2 0zM1265.01 725.99 a9.1 9.1 0 1 0 18.2 0 a9.1 9.1 0 1 0 -18.2 0zM1501.44 134.49 a9.1 9.1 0 1 0 18.2 0 a9.1 9.1 0 1 0 -18.2 0zM1580.25 179.99 a9.1 9.1 0 1 0 18.2 0 a9.1 9.1 0 1 0 -18.2 0zM1580.25 270.99 a9.1 9.1 0 1 0 18.2 0 a9.1 9.1 0 1 0 -18.2 0zM1501.44 316.49 a9.1 9.1 0 1 0 18.2 0 a9.1 9.1 0 1 0 -18.2 0zM1580.25 816.99 a9.1 9.1 0 1 0 18.2 0 a9.1 9.1 0 1 0 -18.2 0zM1659.06 862.49 a9.1 9.1 0 1 0 18.2 0 a9.1 9.1 0 1 0 -18.2 0zM1659.06 953.49 a9.1 9.1 0 1 0 18.2 0 a9.1 9.1 0 1 0 -18.2 0zM1580.25 998.99 a9.1 9.1 0 1 0 18.2 0 a9.1 9.1 0 1 0 -18.2 0zM1501.44 953.49 a9.1 9.1 0 1 0 18.2 0 a9.1 9.1 0 1 0 -18.2 0zM1501.44 862.49 a9.1 9.1 0 1 0 18.2 0 a9.1 9.1 0 1 0 -18.2 0zM1816.68 134.49 a9.1 9.1 0 1 0 18.2 0 a9.1 9.1 0 1 0 -18.2 0zM1895.49 179.99 a9.1 9.1 0 1 0 18.2 0 a9.1 9.1 0 1 0 -18.2 0zM1895.49 270.99 a9.1 9.1 0 1 0 18.2 0 a9.1 9.1 0 1 0 -18.2 0zM1816.68 316.49 a9.1 9.1 0 1 0 18.2 0 a9.1 9.1 0 1 0 -18.2 0zM1737.87 270.99 a9.1 9.1 0 1 0 18.2 0 a9.1 9.1 0 1 0 -18.2 0zM1737.87 179.99 a9.1 9.1 0 1 0 18.2 0 a9.1 9.1 0 1 0 -18.2 0zM1737.87 543.99 a9.1 9.1 0 1 0 18.2 0 a9.1 9.1 0 1 0 -18.2 0zM1816.68 589.49 a9.1 9.1 0 1 0 18.2 0 a9.1 9.1 0 1 0 -18.2 0zM1816.68 680.49 a9.1 9.1 0 1 0 18.2 0 a9.1 9.1 0 1 0 -18.2 0zM1737.87 725.99 a9.1 9.1 0 1 0 18.2 0 a9.1 9.1 0 1 0 -18.2 0zM1659.06 680.49 a9.1 9.1 0 1 0 18.2 0 a9.1 9.1 0 1 0 -18.2 0zM1659.06 589.49 a9.1 9.1 0 1 0 18.2 0 a9.1 9.1 0 1 0 -18.2 0zM1974.3 316.49 a9.1 9.1 0 1 0 18.2 0 a9.1 9.1 0 1 0 -18.2 0zM1974.3 407.49 a9.1 9.1 0 1 0 18.2 0 a9.1 9.1 0 1 0 -18.2 0zM1895.49 452.99 a9.1 9.1 0 1 0 18.2 0 a9.1 9.1 0 1 0 -18.2 0zM1816.68 407.49 a9.1 9.1 0 1 0 18.2 0 a9.1 9.1 0 1 0 -18.2 0zM2053.11 452.99 a9.1 9.1 0 1 0 18.2 0 a9.1 9.1 0 1 0 -18.2 0zM2053.11 543.99 a9.1 9.1 0 1 0 18.2 0 a9.1 9.1 0 1 0 -18.2 0zM1974.3 589.49 a9.1 9.1 0 1 0 18.2 0 a9.1 9.1 0 1 0 -18.2 0zM1895.49 543.99 a9.1 9.1 0 1 0 18.2 0 a9.1 9.1 0 1 0 -18.2 0zM1974.3 680.49 a9.1 9.1 0 1 0 18.2 0 a9.1 9.1 0 1 0 -18.2 0zM2053.11 725.99 a9.1 9.1 0 1 0 18.2 0 a9.1 9.1 0 1 0 -18.2 0zM2053.11 816.99 a9.1 9.1 0 1 0 18.2 0 a9.1 9.1 0 1 0 -18.2 0zM1974.3 862.49 a9.1 9.1 0 1 0 18.2 0 a9.1 9.1 0 1 0 -18.2 0zM1895.49 816.99 a9.1 9.1 0 1 0 18.2 0 a9.1 9.1 0 1 0 -18.2 0zM1895.49 725.99 a9.1 9.1 0 1 0 18.2 0 a9.1 9.1 0 1 0 -18.2 0zM1895.49 1089.99 a9.1 9.1 0 1 0 18.2 0 a9.1 9.1 0 1 0 -18.2 0zM1974.3 1135.49 a9.1 9.1 0 1 0 18.2 0 a9.1 9.1 0 1 0 -18.2 0zM1974.3 1226.49 a9.1 9.1 0 1 0 18.2 0 a9.1 9.1 0 1 0 -18.2 0zM1895.49 1271.99 a9.1 9.1 0 1 0 18.2 0 a9.1 9.1 0 1 0 -18.2 0zM1816.68 1226.49 a9.1 9.1 0 1 0 18.2 0 a9.1 9.1 0 1 0 -18.2 0zM1816.68 1135.49 a9.1 9.1 0 1 0 18.2 0 a9.1 9.1 0 1 0 -18.2 0z" fill="rgba(245, 136, 2, 1)"></path><path d="M115.5 185.72L230.69 252.22L230.69 385.22L115.5 451.72L0.32 385.22L0.32 252.22zM0.32 385.22L115.5 451.72L115.5 584.72L0.32 651.22L-114.86 584.72L-114.86 451.72zM230.69 385.22L345.87 451.72L345.87 584.72L230.69 651.22L115.5 584.72L115.5 451.72zM230.69 784.22L345.87 850.72L345.87 983.72L230.69 1050.22L115.5 983.72L115.5 850.72zM576.24 185.72L691.43 252.22L691.43 385.22L576.24 451.72L461.06 385.22L461.06 252.22zM576.24 983.72L691.43 1050.22L691.43 1183.22L576.24 1249.72L461.06 1183.22L461.06 1050.22zM921.8 784.22L1036.98 850.72L1036.98 983.72L921.8 1050.22L806.61 983.72L806.61 850.72zM1152.17 -13.78L1267.35 52.72L1267.35 185.72L1152.17 252.22L1036.98 185.72L1036.98 52.72zM1152.17 784.22L1267.35 850.72L1267.35 983.72L1152.17 1050.22L1036.98 983.72L1036.98 850.72zM1612.91 784.22L1728.09 850.72L1728.09 983.72L1612.91 1050.22L1497.72 983.72L1497.72 850.72zM1728.09 983.72L1843.27 1050.22L1843.27 1183.22L1728.09 1249.72L1612.91 1183.22L1612.91 1050.22zM1843.27 -13.78L1958.46 52.72L1958.46 185.72L1843.27 252.22L1728.09 185.72L1728.09 52.72z" stroke="rgba(255, 245, 1, 1)" stroke-width="2"></path></g><defs><mask id="SvgjsMask1263"><rect width="1920" height="1080" fill="#ffffff"></rect></mask></defs></svg>